<svg xmlns="http://www.w3.org/2000/svg" width="1280" height="760" viewBox="0 0 1280 760">
<style>
text{font-family:Arial,Helvetica,sans-serif;fill:#222}
.title{font-size:26px;font-weight:700}
.axis{stroke:#222;stroke-width:1.3}
.grid{stroke:#ddd;stroke-width:1}
.tick{font-size:13px;fill:#333}
.label{font-size:16px;font-weight:600}
.legend{font-size:14px}
</style>
<rect width="100%" height="100%" fill="#fff"/>
<text class="title" x="88" y="38">Training Loss Curves</text>
<line class="grid" x1="88" y1="521.13" x2="1238" y2="521.13"/>
<text class="tick" x="76" y="525.13" text-anchor="end">4.00</text>
<line class="grid" x1="88" y1="356.92" x2="1238" y2="356.92"/>
<text class="tick" x="76" y="360.92" text-anchor="end">6.00</text>
<line class="grid" x1="88" y1="192.72" x2="1238" y2="192.72"/>
<text class="tick" x="76" y="196.72" text-anchor="end">8.00</text>
<line class="grid" x1="88.00" y1="64" x2="88.00" y2="642"/>
<text class="tick" x="88.00" y="666" text-anchor="middle">0%</text>
<line class="grid" x1="318.00" y1="64" x2="318.00" y2="642"/>
<text class="tick" x="318.00" y="666" text-anchor="middle">20%</text>
<line class="grid" x1="548.00" y1="64" x2="548.00" y2="642"/>
<text class="tick" x="548.00" y="666" text-anchor="middle">40%</text>
<line class="grid" x1="778.00" y1="64" x2="778.00" y2="642"/>
<text class="tick" x="778.00" y="666" text-anchor="middle">60%</text>
<line class="grid" x1="1008.00" y1="64" x2="1008.00" y2="642"/>
<text class="tick" x="1008.00" y="666" text-anchor="middle">80%</text>
<line class="grid" x1="1238.00" y1="64" x2="1238.00" y2="642"/>
<text class="tick" x="1238.00" y="666" text-anchor="middle">100%</text>
<line class="axis" x1="88" y1="642" x2="1238" y2="642"/>
<line class="axis" x1="88" y1="64" x2="88" y2="642"/>
<text class="label" x="663.00" y="726" text-anchor="middle">Training progress (%)</text>
<text class="label" x="24" y="353.00" text-anchor="middle" transform="rotate(-90 24 353.00)">Loss</text>
<polyline points="88.00,109.68 88.00,97.93 88.00,112.18 88.00,145.55 88.00,169.70 88.00,196.90 88.00,220.80 88.00,240.73 88.00,257.53 88.00,272.13 88.00,285.16 88.00,296.77 89.15,306.68 90.30,315.43 90.30,323.44 91.45,330.23 92.60,336.26 93.75,342.12 94.90,347.32 94.90,352.00 96.05,356.10 97.20,359.91 98.35,363.52 99.50,366.93 99.50,370.03 100.65,373.55 101.80,376.37 102.95,378.83 104.10,381.14 104.10,383.64 105.25,385.98 106.40,388.24 107.55,390.63 108.70,392.61 108.70,394.92 109.85,397.11 111.00,399.00 112.15,401.16 113.30,403.15 113.30,405.15 114.45,407.15 115.60,408.99 116.75,410.66 117.90,412.62 117.90,414.31 119.05,415.81 120.20,417.28 121.35,418.90 122.50,420.40 122.50,421.89 123.65,423.46 124.80,425.13 125.95,426.99 127.10,428.32 127.10,429.86 128.25,431.37 129.40,432.85 130.55,434.08 131.70,435.13 131.70,436.77 132.85,438.22 134.00,440.06 135.15,441.45 136.30,442.68 137.45,443.89 137.45,445.16 138.60,446.62 139.75,447.64 140.90,448.84 142.05,450.32 142.05,451.47 143.20,453.12 144.35,454.26 145.50,455.73 146.65,456.79 146.65,458.11 147.80,459.46 148.95,461.01 150.10,462.47 151.25,463.69 151.25,464.87 152.40,465.92 153.55,467.41 154.70,468.84 155.85,470.15 155.85,471.08 157.00,472.45 158.15,474.05 159.30,475.17 160.45,476.56 160.45,477.89 161.60,478.76 162.75,480.06 163.90,481.52 165.05,482.82 165.05,484.50 166.20,485.79 167.35,487.24 168.50,488.96 169.65,490.22 169.65,490.89 170.80,491.85 171.95,492.99 173.10,494.36 174.25,495.39 175.40,496.46 175.40,497.54 176.55,498.69 177.70,500.17 178.85,501.54 180.00,502.64 180.00,503.23 181.15,504.03 182.30,504.86 183.45,505.99 184.60,506.82 184.60,507.51 185.75,508.70 186.90,509.60 188.05,510.46 189.20,510.96 189.20,512.01 190.35,512.91 191.50,513.97 192.65,514.86 193.80,515.81 193.80,516.93 194.95,517.46 196.10,517.95 197.25,519.08 198.40,519.99 198.40,521.11 199.55,521.56 200.70,522.00 201.85,523.00 203.00,523.36 204.15,524.22 204.15,525.03 205.30,526.15 206.45,526.78 207.60,527.67 208.75,528.25 208.75,528.76 209.90,529.26 211.05,529.79 212.20,530.13 213.35,530.42 213.35,531.35 214.50,531.45 215.65,531.98 216.80,532.50 217.95,532.92 217.95,533.49 219.10,533.88 220.25,534.34 221.40,534.60 222.55,534.90 222.55,534.78 223.70,535.08 224.85,535.34 226.00,536.23 227.15,536.94 228.30,537.85 228.30,538.21 229.45,538.98 230.60,539.73 231.75,540.39 232.90,540.61 232.90,540.23 234.05,541.01 235.20,541.38 236.35,541.46 237.50,541.87 237.50,541.98 238.65,542.69 239.80,542.55 240.95,542.54 242.10,543.87 242.10,543.79 243.25,544.20 244.40,544.69 245.55,544.91 246.70,545.34 247.85,545.06 247.85,545.71 249.00,546.24 250.15,546.18 251.30,546.54 252.45,547.27 252.45,547.47 253.60,548.51 254.75,549.40 255.90,549.56 257.05,550.12 257.05,550.14 258.20,549.72 259.35,549.53 260.50,549.76 261.65,549.62 261.65,550.26 262.80,550.67 263.95,550.79 265.10,551.40 266.25,551.38 266.25,551.86 267.40,551.89 268.55,552.07 269.70,552.01 270.85,552.17 270.85,552.55 272.00,553.15 273.15,553.11 274.30,553.34 275.45,553.49 275.45,553.45 276.60,553.50 277.75,553.64 278.90,553.35 280.05,553.56 281.20,553.19 281.20,552.91 282.35,553.06 283.50,553.12 284.65,553.60 285.80,553.60 285.80,554.42 286.95,554.11 288.10,554.00 289.25,554.46 290.40,554.55 290.40,554.65 291.55,554.88 292.70,555.08 293.85,555.55 295.00,555.81 295.00,556.15 296.15,556.17 297.30,556.19 298.45,556.00 299.60,555.92 299.60,556.37 300.75,556.60 301.90,556.69 303.05,556.82 304.20,557.25 304.20,557.23 305.35,557.23 306.50,557.81 307.65,557.51 308.80,557.30 308.80,557.50 309.95,557.25 311.10,557.82 312.25,557.86 313.40,558.24 314.55,557.89 314.55,558.20 315.70,558.72 316.85,559.33 318.00,558.83 319.15,558.96 319.15,559.34 320.30,559.59 321.45,560.36 322.60,560.32 323.75,560.16 323.75,559.72 324.90,560.16 326.05,559.61 327.20,559.82 328.35,560.02 328.35,559.87 329.50,560.07 330.65,559.93 331.80,559.79 332.95,559.94 332.95,559.90 334.10,560.00 335.25,560.28 336.40,559.83 337.55,560.09 337.55,560.50 338.70,560.70 339.85,560.93 341.00,561.61 342.15,561.55 343.30,560.60 343.30,560.89 344.45,562.08 345.60,562.36 346.75,562.59 347.90,562.57 347.90,562.05 349.05,561.80 350.20,562.67 351.35,562.87 352.50,562.78 352.50,562.55 353.65,563.02 354.80,563.18 355.95,563.33 357.10,563.27 357.10,563.11 358.25,563.12 359.40,562.94 360.55,563.30 361.70,563.00 361.70,563.21 362.85,563.40 364.00,562.97 365.15,562.68 366.30,562.50 366.30,562.66 367.45,562.11 368.60,562.70 369.75,563.33 370.90,563.87 372.05,564.04 372.05,564.68 373.20,564.41 374.35,564.57 375.50,564.70 376.65,565.00 376.65,565.06 377.80,564.79 378.95,565.25 380.10,565.23 381.25,565.92 381.25,565.92 382.40,565.63 383.55,565.48 384.70,565.96 385.85,565.57 385.85,565.72 387.00,565.66 388.15,566.00 389.30,566.32 390.45,566.39 390.45,566.17 391.60,566.53 392.75,566.84 393.90,567.13 395.05,566.67 395.05,566.25 396.20,565.83 397.35,566.12 398.50,566.71 399.65,566.25 400.80,566.14 400.80,566.58 401.95,566.73 403.10,566.83 404.25,566.60 405.40,566.70 405.40,567.32 406.55,567.59 407.70,567.56 408.85,567.29 410.00,567.95 410.00,568.15 411.15,568.44 412.30,568.55 413.45,568.53 414.60,568.48 414.60,567.95 415.75,568.37 416.90,568.57 418.05,568.82 419.20,568.78 419.20,569.30 420.35,569.96 421.50,569.72 422.65,569.67 423.80,569.30 424.95,569.37 424.95,568.92 426.10,568.91 427.25,569.21 428.40,569.19 429.55,569.34 429.55,569.33 430.70,569.01 431.85,568.92 433.00,568.89 434.15,568.95 434.15,568.65 435.30,568.43 436.45,568.26 437.60,569.00 438.75,569.19 438.75,569.34 439.90,569.86 441.05,569.72 442.20,569.91 443.35,569.81 443.35,569.67 444.50,569.80 445.65,570.16 446.80,570.48 447.95,570.44 447.95,570.15 449.10,570.55 450.25,570.69 451.40,570.50 452.55,570.27 453.70,570.70 453.70,571.53 454.85,571.49 456.00,571.80 457.15,572.10 458.30,572.22 458.30,572.30 459.45,572.55 460.60,572.77 461.75,572.76 462.90,572.61 462.90,573.22 464.05,574.21 465.20,574.76 466.35,575.12 467.50,575.16 467.50,575.32 468.65,575.48 469.80,574.65 470.95,574.93 472.10,574.78 472.10,574.51 473.25,574.17 474.40,574.07 475.55,574.34 476.70,574.54 477.85,574.71 477.85,574.25 479.00,574.36 480.15,573.83 481.30,573.99 482.45,573.53 482.45,573.86 483.60,574.28 484.75,574.67 485.90,574.36 487.05,574.46 487.05,574.37 488.20,574.28 489.35,574.45 490.50,574.61 491.65,574.38 491.65,574.20 492.80,573.70 493.95,573.56 495.10,573.76 496.25,573.44 496.25,573.92 497.40,573.42 498.55,574.05 499.70,573.95 500.85,573.39 502.00,573.45 502.00,573.92 503.15,574.31 504.30,573.84 505.45,573.40 506.60,573.48 506.60,573.32 507.75,573.09 508.90,573.43 510.05,573.21 511.20,573.89 511.20,574.46 512.35,574.54 513.50,574.44 514.65,574.01 515.80,573.34 515.80,573.46 516.95,573.32 518.10,573.53 519.25,574.09 520.40,574.23 521.55,574.71 521.55,574.67 522.70,574.83 523.85,574.58 525.00,574.62 526.15,574.57 526.15,574.43 527.30,574.24 528.45,574.68 529.60,574.95 530.75,575.35 530.75,576.46 531.90,577.13 533.05,577.29 534.20,577.47 535.35,577.40 535.35,577.58 536.50,577.20 537.65,577.30 538.80,577.07 539.95,576.69 539.95,576.42 541.10,576.25 542.25,576.30 543.40,576.22 544.55,576.13 545.70,576.63 545.70,576.83 546.85,576.99 548.00,576.91 549.15,577.09 550.30,577.39 550.30,576.94 551.45,576.80 552.60,577.14 553.75,577.60 554.90,577.51 554.90,577.75 556.05,577.61 557.20,577.37 558.35,577.74 559.50,577.79 559.50,578.17 560.65,578.08 561.80,577.95 562.95,578.14 564.10,577.84 565.25,577.93 565.25,578.07 566.40,578.01 567.55,578.38 568.70,578.16 569.85,578.16 569.85,578.20 571.00,578.14 572.15,578.53 573.30,578.02 574.45,578.76 574.45,578.60 575.60,578.11 576.75,578.04 577.90,578.35 579.05,578.97 579.05,579.18 580.20,578.87 581.35,578.75 582.50,579.48 583.65,579.05 583.65,578.88 584.80,579.51 585.95,579.43 587.10,580.24 588.25,580.41 588.25,579.80 589.40,580.10 590.55,579.85 591.70,580.52 592.85,580.47 594.00,580.07 594.00,579.58 595.15,580.27 596.30,580.31 597.45,580.93 598.60,581.11 598.60,581.27 599.75,581.13 600.90,581.35 602.05,581.57 603.20,581.31 603.20,581.54 604.35,581.37 605.50,581.37 606.65,581.32 607.80,580.93 607.80,580.88 608.95,580.86 610.10,580.73 611.25,580.58 612.40,580.44 612.40,581.07 613.55,580.93 614.70,581.29 615.85,580.18 617.00,580.13 618.15,580.26 618.15,580.09 619.30,580.22 620.45,580.35 621.60,580.18 622.75,580.25 622.75,580.11 623.90,580.53 625.05,580.47 626.20,580.04 627.35,580.07 627.35,579.75 628.50,579.69 629.65,579.26 630.80,579.74 631.95,580.10 631.95,580.13 633.10,580.10 634.25,580.96 635.40,581.32 636.55,581.49 637.70,581.89 637.70,582.09 638.85,581.72 640.00,581.41 641.15,581.47 642.30,581.50 642.30,581.14 643.45,581.54 644.60,581.26 645.75,581.69 646.90,581.66 646.90,581.61 648.05,581.44 649.20,580.71 650.35,580.66 651.50,580.45 651.50,580.60 652.65,580.77 653.80,580.52 654.95,580.91 656.10,581.04 657.25,581.47 657.25,581.48 658.40,581.60 659.55,581.75 660.70,582.10 661.85,582.26 661.85,582.00 663.00,582.14 664.15,582.34 665.30,582.53 666.45,582.70 666.45,582.58 667.60,582.54 668.75,582.34 669.90,582.46 671.05,582.57 671.05,582.83 672.20,583.17 673.35,583.52 674.50,583.57 675.65,583.49 676.80,583.14 676.80,583.45 677.95,583.42 679.10,583.53 680.25,583.35 681.40,583.67 681.40,583.52 682.55,583.15 683.70,582.94 684.85,582.83 686.00,583.39 686.00,583.97 687.15,583.85 688.30,583.80 689.45,583.77 690.60,583.48 690.60,583.43 691.75,583.55 692.90,583.92 694.05,583.36 695.20,583.80 696.35,583.89 696.35,583.94 697.50,583.99 698.65,584.10 699.80,584.11 700.95,584.11 700.95,584.05 702.10,584.32 703.25,583.96 704.40,584.01 705.55,584.18 705.55,584.04 706.70,583.40 707.85,583.18 709.00,583.40 710.15,583.84 710.15,583.46 711.30,583.33 712.45,583.87 713.60,584.30 714.75,584.29 714.75,584.84 715.90,584.47 717.05,584.77 718.20,584.51 719.35,584.29 720.50,584.21 720.50,584.25 721.65,584.20 722.80,584.34 723.95,584.87 725.10,584.72 725.10,585.09 726.25,584.99 727.40,584.87 728.55,584.92 729.70,585.06 729.70,585.95 730.85,586.05 732.00,586.19 733.15,585.30 734.30,585.31 734.30,585.20 735.45,585.36 736.60,585.84 737.75,586.70 738.90,586.55 738.90,586.62 740.05,587.01 741.20,586.68 742.35,586.22 743.50,586.31 744.65,586.11 744.65,586.49 745.80,586.49 746.95,586.75 748.10,587.34 749.25,587.84 749.25,587.51 750.40,587.56 751.55,588.13 752.70,587.99 753.85,588.08 753.85,588.23 755.00,587.95 756.15,587.92 757.30,588.39 758.45,588.76 758.45,588.27 759.60,588.55 760.75,588.74 761.90,589.20 763.05,589.70 764.20,590.00 764.20,590.15 765.35,589.54 766.50,589.02 767.65,588.86 768.80,589.01 768.80,589.16 769.95,589.23 771.10,589.18 772.25,589.12 773.40,589.74 773.40,589.54 774.55,590.14 775.70,589.89 776.85,590.25 778.00,590.21 778.00,590.70 779.15,590.54 780.30,590.23 781.45,589.86 782.60,589.09 783.75,589.10 783.75,589.29 784.90,588.92 786.05,588.95 787.20,588.76 788.35,588.92 788.35,588.53 789.50,588.85 790.65,588.90 791.80,588.68 792.95,588.85 792.95,588.82 794.10,589.56 795.25,589.66 796.40,589.86 797.55,589.51 797.55,589.91 798.70,590.15 799.85,590.46 801.00,590.94 802.15,590.35 802.15,590.54 803.30,590.79 804.45,590.36 805.60,590.16 806.75,590.60 806.75,590.36 807.90,590.27 809.05,590.44 810.20,590.36 811.35,590.25 812.50,590.38 812.50,590.49 813.65,590.01 814.80,590.11 815.95,591.47 817.10,591.91 817.10,591.80 818.25,591.65 819.40,591.94 820.55,591.96 821.70,592.14 821.70,592.12 822.85,592.15 824.00,591.99 825.15,591.73 826.30,591.87 826.30,591.67 827.45,591.37 828.60,591.74 829.75,591.80 830.90,591.44 830.90,591.63 832.05,591.79 833.20,591.85 834.35,592.03 835.50,591.83 836.65,592.25 836.65,592.83 837.80,592.59 838.95,592.73 840.10,592.60 841.25,593.32 841.25,593.90 842.40,593.86 843.55,593.43 844.70,593.58 845.85,593.51 845.85,593.70 847.00,593.64 848.15,593.57 849.30,593.74 850.45,594.05 850.45,593.74 851.60,593.36 852.75,593.46 853.90,593.63 855.05,593.39 855.05,593.86 856.20,593.76 857.35,593.58 858.50,593.58 859.65,593.61 860.80,594.38 860.80,594.21 861.95,594.52 863.10,594.04 864.25,593.56 865.40,593.23 865.40,593.24 866.55,593.63 867.70,594.10 868.85,594.14 870.00,594.14 870.00,594.34 871.15,594.76 872.30,595.44 873.45,595.26 874.60,595.45 874.60,595.54 875.75,595.34 876.90,594.97 878.05,595.26 879.20,595.20 880.35,595.40 880.35,595.81 881.50,595.53 882.65,595.29 883.80,595.04 884.95,594.69 884.95,594.97 886.10,594.34 887.25,594.15 888.40,594.68 889.55,594.95 889.55,594.85 890.70,594.40 891.85,594.84 893.00,594.89 894.15,594.78 894.15,594.84 895.30,594.79 896.45,595.06 897.60,594.31 898.75,594.49 898.75,594.24 899.90,593.97 901.05,593.89 902.20,594.75 903.35,595.72 904.50,595.85 904.50,596.04 905.65,596.49 906.80,596.29 907.95,596.02 909.10,595.86 909.10,596.07 910.25,596.03 911.40,595.66 912.55,596.01 913.70,595.58 913.70,595.88 914.85,595.36 916.00,595.74 917.15,595.23 918.30,595.25 918.30,595.47 919.45,594.81 920.60,595.27 921.75,595.40 922.90,595.46 924.05,595.47 924.05,595.52 925.20,595.18 926.35,595.16 927.50,595.47 928.65,595.68 928.65,595.49 929.80,596.06 930.95,595.74 932.10,595.70 933.25,595.76 933.25,595.29 934.40,595.44 935.55,595.28 936.70,595.31 937.85,594.83 937.85,595.23 939.00,596.11 940.15,596.19 941.30,596.66 942.45,596.55 943.60,596.87 943.60,596.70 944.75,597.37 945.90,597.12 947.05,597.07 948.20,596.34 948.20,596.01 949.35,596.66 950.50,597.03 951.65,596.72 952.80,596.24 952.80,597.14 953.95,597.32 955.10,597.41 956.25,597.28 957.40,597.73 958.55,597.31 958.55,596.83 959.70,597.25 960.85,597.78 962.00,597.24 963.15,597.57 963.15,597.23 964.30,597.39 965.45,597.44 966.60,596.89 967.75,597.46 967.75,597.24 968.90,597.39 970.05,598.04 971.20,598.35 972.35,598.80 972.35,599.27 973.50,599.93 974.65,599.95 975.80,599.63 976.95,599.54 976.95,599.86 978.10,599.45 979.25,599.37 980.40,599.09 981.55,598.77 982.70,598.48 982.70,598.72 983.85,598.36 985.00,598.24 986.15,598.15 987.30,598.32 987.30,597.86 988.45,598.25 989.60,598.62 990.75,599.42 991.90,599.46 991.90,599.96 993.05,600.40 994.20,600.36 995.35,599.72 996.50,599.66 996.50,600.18 997.65,600.92 998.80,601.13 999.95,600.98 1001.10,600.74 1001.10,600.56 1002.25,600.36 1003.40,600.05 1004.55,600.21 1005.70,599.88 1006.85,600.62 1006.85,600.77 1008.00,600.70 1009.15,600.53 1010.30,600.48 1011.45,600.71 1011.45,600.38 1012.60,600.14 1013.75,600.29 1014.90,600.30 1016.05,600.05 1016.05,599.90 1017.20,599.57 1018.35,600.23 1019.50,599.48 1020.65,599.72 1020.65,600.30 1021.80,601.32 1022.95,601.01 1024.10,600.50 1025.25,601.26 1025.25,601.08 1026.40,600.79 1027.55,600.89 1028.70,601.23 1029.85,600.99 1031.00,601.44 1031.00,601.55 1032.15,601.36 1033.30,602.09 1034.45,602.22 1035.60,601.55 1035.60,601.87 1036.75,601.55 1037.90,601.74 1039.05,602.28 1040.20,602.21 1040.20,601.76 1041.35,601.68 1042.50,601.61 1043.65,601.34 1044.80,601.49 1044.80,601.27 1045.95,601.62 1047.10,601.41 1048.25,601.86 1049.40,601.74 1050.55,602.11 1050.55,601.95 1051.70,601.65 1052.85,601.83 1054.00,601.48 1055.15,602.05 1055.15,602.02 1056.30,602.48 1057.45,601.99 1058.60,602.02 1059.75,602.47 1059.75,602.50 1060.90,602.19 1062.05,601.79 1063.20,602.61 1064.35,602.67 1064.35,602.66 1065.50,603.26 1066.65,602.62 1067.80,602.84 1068.95,603.18 1068.95,603.06 1070.10,603.51 1071.25,603.24 1072.40,603.77 1073.55,603.74 1074.70,604.44 1074.70,604.66 1075.85,604.09 1077.00,603.75 1078.15,603.56 1079.30,603.52 1079.30,604.02 1080.45,603.77 1081.60,603.76 1082.75,603.68 1083.90,603.47 1083.90,603.59 1085.05,603.97 1086.20,603.69 1087.35,603.75 1088.50,603.79 1088.50,603.36 1089.65,603.18 1090.80,603.04 1091.95,603.22 1093.10,603.13 1093.10,603.46 1094.25,603.67 1095.40,603.91 1096.55,603.68 1097.70,603.61 1098.85,603.94 1098.85,603.65 1100.00,603.78 1101.15,604.08 1102.30,604.36 1103.45,604.29 1103.45,604.52 1104.60,603.97 1105.75,603.56 1106.90,603.46 1108.05,603.98 1108.05,604.13 1109.20,604.26 1110.35,603.99 1111.50,603.90 1112.65,604.37 1112.65,604.36 1113.80,604.19 1114.95,604.30 1116.10,603.94 1117.25,604.08 1118.40,604.19 1118.40,604.34 1119.55,604.57 1120.70,604.38 1121.85,604.03 1123.00,604.09 1123.00,603.82 1124.15,603.92 1125.30,603.50 1126.45,603.43 1127.60,603.54 1127.60,603.73 1128.75,604.02 1129.90,604.10 1131.05,603.87 1132.20,604.01 1132.20,603.82 1133.35,604.05 1134.50,604.70 1135.65,604.53 1136.80,605.01 1136.80,604.65 1137.95,604.65 1139.10,604.91 1140.25,604.54 1141.40,604.57 1141.40,604.44 1142.55,604.72 1143.70,605.41 1144.85,605.25 1146.00,605.81 1147.15,605.31 1147.15,605.42 1148.30,605.40 1149.45,605.17 1150.60,604.57 1151.75,604.04 1151.75,604.18 1152.90,604.86 1154.05,604.64 1155.20,605.51 1156.35,605.07 1156.35,605.34 1157.50,605.51 1158.65,604.80 1159.80,604.96 1160.95,604.89 1160.95,605.26 1162.10,605.92 1163.25,606.51 1164.40,606.65 1165.55,606.54 1166.70,607.06 1166.70,607.28 1167.85,607.48 1169.00,607.33 1170.15,607.66 1171.30,606.93 1171.30,606.82 1172.45,606.93 1173.60,606.49 1174.75,606.72 1175.90,606.48 1175.90,605.90 1177.05,605.60 1178.20,605.81 1179.35,605.22 1180.50,605.53 1180.50,605.95 1181.65,606.42 1182.80,606.04 1183.95,605.50 1185.10,605.29 1185.10,605.42 1186.25,606.05 1187.40,606.06 1188.55,605.73 1189.70,606.57 1190.85,606.95 1190.85,607.83 1192.00,608.09 1193.15,607.44 1194.30,607.10 1195.45,607.34 1195.45,607.60 1196.60,607.38 1197.75,607.41 1198.90,606.94 1200.05,606.96 1200.05,607.20 1201.20,606.86 1202.35,607.20 1203.50,606.64 1204.65,606.89 1204.65,607.10 1205.80,606.86 1206.95,607.09 1208.10,606.94 1209.25,607.05 1210.40,607.28 1210.40,607.58 1211.55,607.15 1212.70,607.13 1213.85,607.29 1215.00,607.24 1215.00,607.61 1216.15,608.14 1217.30,608.01 1218.45,608.23 1219.60,608.41 1219.60,608.53 1220.75,608.96 1221.90,609.22 1223.05,609.14 1224.20,608.92 1224.20,609.26 1225.35,609.20 1226.50,609.82 1227.65,609.75 1228.80,609.89 1228.80,609.70 1229.95,610.23 1231.10,609.83 1232.25,609.41 1233.40,609.71 1234.55,609.73 1234.55,609.41 1235.70,609.16 1236.85,609.05 1238.00,608.99" fill="none" stroke="#1f77b4" stroke-width="1" opacity="0.18"/>
<polyline points="88.00,109.68 88.00,103.80 88.00,106.60 88.00,116.33 88.00,127.01 88.00,138.66 88.00,150.39 88.00,161.68 88.00,172.33 88.00,182.31 88.00,191.66 88.00,200.42 89.15,208.60 90.30,216.23 90.30,223.37 91.45,230.05 92.60,236.30 93.75,242.18 94.90,247.71 94.90,252.93 96.05,257.84 97.20,262.48 98.35,266.87 99.50,271.04 99.50,275.00 100.65,285.56 101.80,296.69 102.95,307.36 104.10,316.78 104.10,325.34 105.25,332.90 106.40,339.60 107.55,345.60 108.70,351.00 108.70,355.91 109.85,360.39 111.00,364.48 112.15,368.26 113.30,371.77 113.30,375.04 114.45,378.11 115.60,381.02 116.75,383.76 117.90,386.38 117.90,388.87 119.05,391.26 120.20,393.55 121.35,395.77 122.50,397.90 122.50,399.98 123.65,401.98 124.80,403.93 125.95,405.85 127.10,407.74 127.10,409.59 128.25,411.40 129.40,413.19 130.55,414.93 131.70,416.63 131.70,418.30 132.85,419.95 134.00,421.59 135.15,423.20 136.30,424.78 137.45,426.33 137.45,427.85 138.60,429.36 139.75,430.84 140.90,432.28 142.05,433.72 142.05,435.15 143.20,436.58 144.35,438.00 145.50,439.41 146.65,440.81 146.65,442.19 147.80,443.57 148.95,444.93 150.10,446.29 151.25,447.65 151.25,448.99 152.40,450.31 153.55,451.64 154.70,452.99 155.85,454.33 155.85,455.64 157.00,456.94 158.15,458.24 159.30,459.54 160.45,460.85 160.45,462.16 161.60,463.44 162.75,464.74 163.90,466.05 165.05,467.35 165.05,468.67 166.20,469.97 167.35,471.29 168.50,472.62 169.65,473.96 169.65,475.27 170.80,476.57 171.95,477.85 173.10,479.12 174.25,480.39 175.40,481.65 175.40,482.92 176.55,484.17 177.70,485.42 178.85,486.68 180.00,487.94 180.00,489.17 181.15,490.37 182.30,491.56 183.45,492.74 184.60,493.89 184.60,495.04 185.75,496.19 186.90,497.31 188.05,498.42 189.20,499.47 189.20,500.52 190.35,501.55 191.50,502.55 192.65,503.54 193.80,504.53 193.80,505.54 194.95,506.52 196.10,507.46 197.25,508.41 198.40,509.35 198.40,510.29 199.55,511.21 200.70,512.08 201.85,512.94 203.00,513.77 204.15,514.61 204.15,515.45 205.30,516.30 206.45,517.13 207.60,517.96 208.75,518.79 208.75,519.60 209.90,520.38 211.05,521.16 212.20,521.92 213.35,522.66 213.35,523.40 214.50,524.10 215.65,524.78 216.80,525.45 217.95,526.09 217.95,526.73 219.10,527.37 220.25,527.98 221.40,528.56 222.55,529.11 222.55,529.64 223.70,530.16 224.85,530.66 226.00,531.17 227.15,531.68 228.30,532.19 228.30,532.68 229.45,533.16 230.60,533.65 231.75,534.13 232.90,534.61 232.90,535.04 234.05,535.49 235.20,535.94 236.35,536.38 237.50,536.81 237.50,537.23 238.65,537.66 239.80,538.06 240.95,538.44 242.10,538.86 242.10,539.25 243.25,539.65 244.40,540.05 245.55,540.45 246.70,540.87 247.85,541.27 247.85,541.69 249.00,542.09 250.15,542.46 251.30,542.81 252.45,543.17 252.45,543.51 253.60,543.86 254.75,544.22 255.90,544.58 257.05,544.97 257.05,545.34 258.20,545.67 259.35,546.00 260.50,546.31 261.65,546.62 261.65,546.92 262.80,547.24 263.95,547.57 265.10,547.88 266.25,548.18 266.25,548.49 267.40,548.77 268.55,549.06 269.70,549.33 270.85,549.61 270.85,549.88 272.00,550.16 273.15,550.44 274.30,550.71 275.45,550.96 275.45,551.20 276.60,551.40 277.75,551.57 278.90,551.72 280.05,551.86 281.20,551.98 281.20,552.11 282.35,552.25 283.50,552.38 284.65,552.54 285.80,552.68 285.80,552.82 286.95,552.96 288.10,553.06 289.25,553.18 290.40,553.29 290.40,553.40 291.55,553.51 292.70,553.64 293.85,553.77 295.00,553.90 295.00,554.02 296.15,554.15 297.30,554.26 298.45,554.36 299.60,554.46 299.60,554.57 300.75,554.69 301.90,554.83 303.05,554.96 304.20,555.12 304.20,555.29 305.35,555.46 306.50,555.65 307.65,555.80 308.80,555.95 308.80,556.07 309.95,556.20 311.10,556.35 312.25,556.49 313.40,556.64 314.55,556.76 314.55,556.90 315.70,557.04 316.85,557.19 318.00,557.32 319.15,557.43 319.15,557.55 320.30,557.69 321.45,557.87 322.60,558.04 323.75,558.19 323.75,558.32 324.90,558.46 326.05,558.57 327.20,558.67 328.35,558.78 328.35,558.89 329.50,558.98 330.65,559.08 331.80,559.18 332.95,559.27 332.95,559.38 334.10,559.47 335.25,559.56 336.40,559.63 337.55,559.71 337.55,559.81 338.70,559.88 339.85,559.95 341.00,560.06 342.15,560.16 343.30,560.21 343.30,560.27 344.45,560.33 345.60,560.42 346.75,560.51 347.90,560.63 347.90,560.70 349.05,560.79 350.20,560.90 351.35,561.02 352.50,561.13 352.50,561.23 353.65,561.36 354.80,561.49 355.95,561.63 357.10,561.76 357.10,561.89 358.25,562.00 359.40,562.13 360.55,562.25 361.70,562.35 361.70,562.45 362.85,562.55 364.00,562.61 365.15,562.65 366.30,562.73 366.30,562.80 367.45,562.80 368.60,562.81 369.75,562.84 370.90,562.90 372.05,562.98 372.05,563.09 373.20,563.16 374.35,563.23 375.50,563.31 376.65,563.40 376.65,563.48 377.80,563.55 378.95,563.63 380.10,563.70 381.25,563.82 381.25,563.93 382.40,564.04 383.55,564.12 384.70,564.24 385.85,564.34 385.85,564.43 387.00,564.54 388.15,564.67 389.30,564.82 390.45,564.97 390.45,565.13 391.60,565.29 392.75,565.43 393.90,565.56 395.05,565.66 395.05,565.73 396.20,565.78 397.35,565.85 398.50,565.93 399.65,565.98 400.80,566.02 400.80,566.09 401.95,566.15 403.10,566.21 404.25,566.24 405.40,566.27 405.40,566.34 406.55,566.42 407.70,566.49 408.85,566.56 410.00,566.65 410.00,566.75 411.15,566.84 412.30,566.93 413.45,567.02 414.60,567.11 414.60,567.17 415.75,567.23 416.90,567.29 418.05,567.37 419.20,567.47 419.20,567.61 420.35,567.77 421.50,567.89 422.65,568.02 423.80,568.15 424.95,568.26 424.95,568.35 426.10,568.43 427.25,568.54 428.40,568.64 429.55,568.72 429.55,568.79 430.70,568.85 431.85,568.91 433.00,568.95 434.15,568.98 434.15,568.99 435.30,568.98 436.45,568.97 437.60,568.99 438.75,569.04 438.75,569.08 439.90,569.13 441.05,569.17 442.20,569.22 443.35,569.24 443.35,569.22 444.50,569.23 445.65,569.25 446.80,569.29 447.95,569.34 447.95,569.39 449.10,569.45 450.25,569.51 451.40,569.56 452.55,569.60 453.70,569.65 453.70,569.75 454.85,569.86 456.00,569.97 457.15,570.10 458.30,570.24 458.30,570.40 459.45,570.57 460.60,570.72 461.75,570.86 462.90,570.99 462.90,571.13 464.05,571.31 465.20,571.50 466.35,571.71 467.50,571.93 467.50,572.15 468.65,572.37 469.80,572.53 470.95,572.71 472.10,572.90 472.10,573.06 473.25,573.20 474.40,573.34 475.55,573.50 476.70,573.66 477.85,573.78 477.85,573.89 479.00,574.00 480.15,574.07 481.30,574.14 482.45,574.19 482.45,574.24 483.60,574.30 484.75,574.37 485.90,574.44 487.05,574.49 487.05,574.50 488.20,574.48 489.35,574.45 490.50,574.43 491.65,574.39 491.65,574.34 492.80,574.31 493.95,574.25 495.10,574.21 496.25,574.17 496.25,574.16 497.40,574.13 498.55,574.12 499.70,574.09 500.85,574.04 502.00,574.01 502.00,573.99 503.15,574.01 504.30,574.01 505.45,574.00 506.60,573.99 506.60,573.95 507.75,573.88 508.90,573.85 510.05,573.80 511.20,573.78 511.20,573.79 512.35,573.79 513.50,573.78 514.65,573.77 515.80,573.73 515.80,573.72 516.95,573.71 518.10,573.70 519.25,573.73 520.40,573.74 521.55,573.79 521.55,573.82 522.70,573.85 523.85,573.90 525.00,573.95 526.15,573.97 526.15,573.98 527.30,574.00 528.45,574.05 529.60,574.11 530.75,574.19 530.75,574.32 531.90,574.47 533.05,574.63 534.20,574.78 535.35,574.89 535.35,575.01 536.50,575.13 537.65,575.26 538.80,575.41 539.95,575.54 539.95,575.66 541.10,575.77 542.25,575.86 543.40,575.94 544.55,575.99 545.70,576.07 545.70,576.15 546.85,576.25 548.00,576.34 549.15,576.44 550.30,576.56 550.30,576.67 551.45,576.75 552.60,576.84 553.75,576.93 554.90,576.97 554.90,577.00 556.05,577.01 557.20,577.00 558.35,577.02 559.50,577.03 559.50,577.07 560.65,577.10 561.80,577.13 562.95,577.19 564.10,577.25 565.25,577.31 565.25,577.38 566.40,577.46 567.55,577.55 568.70,577.61 569.85,577.66 569.85,577.71 571.00,577.76 572.15,577.82 573.30,577.84 574.45,577.91 574.45,577.99 575.60,578.02 576.75,578.04 577.90,578.08 579.05,578.12 579.05,578.19 580.20,578.25 581.35,578.29 582.50,578.36 583.65,578.39 583.65,578.42 584.80,578.48 585.95,578.54 587.10,578.63 588.25,578.73 588.25,578.80 589.40,578.88 590.55,578.94 591.70,579.04 592.85,579.13 594.00,579.20 594.00,579.26 595.15,579.33 596.30,579.42 597.45,579.51 598.60,579.61 598.60,579.74 599.75,579.86 600.90,579.98 602.05,580.08 603.20,580.17 603.20,580.28 604.35,580.38 605.50,580.46 606.65,580.55 607.80,580.63 607.80,580.68 608.95,580.74 610.10,580.76 611.25,580.77 612.40,580.79 612.40,580.83 613.55,580.88 614.70,580.91 615.85,580.89 617.00,580.90 618.15,580.92 618.15,580.92 619.30,580.91 620.45,580.89 621.60,580.85 622.75,580.81 622.75,580.77 623.90,580.74 625.05,580.69 626.20,580.64 627.35,580.59 627.35,580.52 628.50,580.45 629.65,580.37 630.80,580.32 631.95,580.29 631.95,580.26 633.10,580.24 634.25,580.25 635.40,580.29 636.55,580.31 637.70,580.34 637.70,580.38 638.85,580.44 640.00,580.49 641.15,580.54 642.30,580.59 642.30,580.63 643.45,580.68 644.60,580.72 645.75,580.78 646.90,580.84 646.90,580.88 648.05,580.92 649.20,580.95 650.35,580.97 651.50,581.00 651.50,581.04 652.65,581.10 653.80,581.13 654.95,581.16 656.10,581.20 657.25,581.25 657.25,581.27 658.40,581.28 659.55,581.30 660.70,581.30 661.85,581.31 661.85,581.32 663.00,581.35 664.15,581.39 665.30,581.43 666.45,581.49 666.45,581.53 667.60,581.58 668.75,581.61 669.90,581.64 671.05,581.68 671.05,581.73 672.20,581.83 673.35,581.95 674.50,582.07 675.65,582.19 676.80,582.28 676.80,582.40 677.95,582.50 679.10,582.60 680.25,582.67 681.40,582.76 681.40,582.84 682.55,582.89 683.70,582.93 684.85,582.95 686.00,583.01 686.00,583.08 687.15,583.14 688.30,583.19 689.45,583.23 690.60,583.27 690.60,583.31 691.75,583.35 692.90,583.41 694.05,583.44 695.20,583.48 696.35,583.51 696.35,583.53 697.50,583.55 698.65,583.57 699.80,583.61 700.95,583.63 700.95,583.66 702.10,583.69 703.25,583.72 704.40,583.73 705.55,583.76 705.55,583.79 706.70,583.81 707.85,583.82 709.00,583.82 710.15,583.82 710.15,583.80 711.30,583.78 712.45,583.79 713.60,583.82 714.75,583.86 714.75,583.91 715.90,583.93 717.05,583.99 718.20,584.01 719.35,584.03 720.50,584.04 720.50,584.05 721.65,584.06 722.80,584.06 723.95,584.09 725.10,584.12 725.10,584.15 726.25,584.19 727.40,584.23 728.55,584.26 729.70,584.30 729.70,584.40 730.85,584.52 732.00,584.63 733.15,584.69 734.30,584.76 734.30,584.83 735.45,584.89 736.60,584.96 737.75,585.05 738.90,585.12 738.90,585.21 740.05,585.30 741.20,585.38 742.35,585.46 743.50,585.54 744.65,585.62 744.65,585.71 745.80,585.80 746.95,585.87 748.10,585.98 749.25,586.09 749.25,586.19 750.40,586.29 751.55,586.42 752.70,586.54 753.85,586.63 753.85,586.71 755.00,586.78 756.15,586.89 757.30,587.01 758.45,587.15 758.45,587.27 759.60,587.38 760.75,587.46 761.90,587.57 763.05,587.69 764.20,587.81 764.20,587.95 765.35,588.08 766.50,588.19 767.65,588.30 768.80,588.40 768.80,588.51 769.95,588.61 771.10,588.68 772.25,588.73 773.40,588.82 773.40,588.90 774.55,588.98 775.70,589.06 776.85,589.14 778.00,589.22 778.00,589.33 779.15,589.44 780.30,589.51 781.45,589.55 782.60,589.59 783.75,589.61 783.75,589.63 784.90,589.62 786.05,589.59 787.20,589.54 788.35,589.49 788.35,589.45 789.50,589.44 790.65,589.44 791.80,589.43 792.95,589.42 792.95,589.40 794.10,589.42 795.25,589.44 796.40,589.44 797.55,589.44 797.55,589.43 798.70,589.44 799.85,589.45 801.00,589.48 802.15,589.47 802.15,589.47 803.30,589.49 804.45,589.51 805.60,589.55 806.75,589.61 806.75,589.66 807.90,589.71 809.05,589.77 810.20,589.83 811.35,589.89 812.50,589.96 812.50,590.03 813.65,590.07 814.80,590.13 815.95,590.23 817.10,590.36 817.10,590.45 818.25,590.53 819.40,590.61 820.55,590.71 821.70,590.80 821.70,590.88 822.85,590.94 824.00,590.99 825.15,591.04 826.30,591.09 826.30,591.13 827.45,591.17 828.60,591.23 829.75,591.28 830.90,591.32 830.90,591.38 832.05,591.43 833.20,591.49 834.35,591.56 835.50,591.62 836.65,591.69 836.65,591.80 837.80,591.90 838.95,591.95 840.10,591.98 841.25,592.04 841.25,592.13 842.40,592.21 843.55,592.27 844.70,592.32 845.85,592.38 845.85,592.44 847.00,592.51 848.15,592.58 849.30,592.65 850.45,592.75 850.45,592.84 851.60,592.91 852.75,592.98 853.90,593.06 855.05,593.13 855.05,593.22 856.20,593.29 857.35,593.35 858.50,593.43 859.65,593.48 860.80,593.54 860.80,593.61 861.95,593.68 863.10,593.74 864.25,593.75 865.40,593.72 865.40,593.69 866.55,593.70 867.70,593.72 868.85,593.75 870.00,593.77 870.00,593.79 871.15,593.84 872.30,593.91 873.45,593.96 874.60,594.03 874.60,594.11 875.75,594.19 876.90,594.24 878.05,594.32 879.20,594.37 880.35,594.44 880.35,594.53 881.50,594.60 882.65,594.67 883.80,594.70 884.95,594.72 884.95,594.74 886.10,594.75 887.25,594.77 888.40,594.83 889.55,594.90 889.55,594.95 890.70,594.96 891.85,594.99 893.00,595.02 894.15,595.03 894.15,595.04 895.30,595.01 896.45,595.00 897.60,594.96 898.75,594.92 898.75,594.87 899.90,594.83 901.05,594.78 902.20,594.76 903.35,594.77 904.50,594.77 904.50,594.79 905.65,594.84 906.80,594.89 907.95,594.94 909.10,594.98 909.10,595.05 910.25,595.12 911.40,595.16 912.55,595.21 913.70,595.23 913.70,595.29 914.85,595.31 916.00,595.35 917.15,595.37 918.30,595.38 918.30,595.41 919.45,595.40 920.60,595.44 921.75,595.48 922.90,595.52 924.05,595.58 924.05,595.65 925.20,595.67 926.35,595.64 927.50,595.63 928.65,595.61 928.65,595.57 929.80,595.57 930.95,595.55 932.10,595.55 933.25,595.54 933.25,595.51 934.40,595.50 935.55,595.47 936.70,595.46 937.85,595.41 937.85,595.41 939.00,595.42 940.15,595.46 941.30,595.52 942.45,595.56 943.60,595.64 943.60,595.70 944.75,595.78 945.90,595.85 947.05,595.91 948.20,595.94 948.20,595.98 949.35,596.04 950.50,596.10 951.65,596.14 952.80,596.17 952.80,596.21 953.95,596.28 955.10,596.35 956.25,596.41 957.40,596.50 958.55,596.58 958.55,596.64 959.70,596.72 960.85,596.84 962.00,596.92 963.15,596.98 963.15,597.02 964.30,597.05 965.45,597.08 966.60,597.08 967.75,597.11 967.75,597.11 968.90,597.12 970.05,597.16 971.20,597.24 972.35,597.35 972.35,597.45 973.50,597.57 974.65,597.70 975.80,597.83 976.95,597.93 976.95,598.03 978.10,598.11 979.25,598.20 980.40,598.25 981.55,598.31 982.70,598.38 982.70,598.43 983.85,598.46 985.00,598.50 986.15,598.52 987.30,598.56 987.30,598.58 988.45,598.62 989.60,598.69 990.75,598.76 991.90,598.85 991.90,598.96 993.05,599.05 994.20,599.13 995.35,599.17 996.50,599.18 996.50,599.19 997.65,599.23 998.80,599.29 999.95,599.35 1001.10,599.38 1001.10,599.43 1002.25,599.47 1003.40,599.51 1004.55,599.56 1005.70,599.62 1006.85,599.70 1006.85,599.79 1008.00,599.89 1009.15,599.99 1010.30,600.07 1011.45,600.19 1011.45,600.27 1012.60,600.33 1013.75,600.37 1014.90,600.40 1016.05,600.40 1016.05,600.38 1017.20,600.35 1018.35,600.37 1019.50,600.37 1020.65,600.35 1020.65,600.32 1021.80,600.33 1022.95,600.33 1024.10,600.32 1025.25,600.35 1025.25,600.38 1026.40,600.41 1027.55,600.44 1028.70,600.49 1029.85,600.50 1031.00,600.53 1031.00,600.57 1032.15,600.60 1033.30,600.66 1034.45,600.72 1035.60,600.77 1035.60,600.84 1036.75,600.89 1037.90,600.95 1039.05,601.04 1040.20,601.13 1040.20,601.22 1041.35,601.27 1042.50,601.36 1043.65,601.42 1044.80,601.47 1044.80,601.47 1045.95,601.49 1047.10,601.53 1048.25,601.55 1049.40,601.58 1050.55,601.63 1050.55,601.68 1051.70,601.69 1052.85,601.73 1054.00,601.73 1055.15,601.75 1055.15,601.77 1056.30,601.79 1057.45,601.78 1058.60,601.80 1059.75,601.82 1059.75,601.86 1060.90,601.88 1062.05,601.86 1063.20,601.88 1064.35,601.91 1064.35,601.95 1065.50,602.02 1066.65,602.07 1067.80,602.12 1068.95,602.20 1068.95,602.26 1070.10,602.34 1071.25,602.40 1072.40,602.48 1073.55,602.54 1074.70,602.64 1074.70,602.76 1075.85,602.85 1077.00,602.94 1078.15,603.00 1079.30,603.06 1079.30,603.13 1080.45,603.20 1081.60,603.27 1082.75,603.32 1083.90,603.35 1083.90,603.41 1085.05,603.50 1086.20,603.54 1087.35,603.58 1088.50,603.63 1088.50,603.63 1089.65,603.66 1090.80,603.66 1091.95,603.67 1093.10,603.67 1093.10,603.67 1094.25,603.68 1095.40,603.69 1096.55,603.69 1097.70,603.65 1098.85,603.62 1098.85,603.61 1100.00,603.61 1101.15,603.63 1102.30,603.66 1103.45,603.67 1103.45,603.70 1104.60,603.71 1105.75,603.71 1106.90,603.71 1108.05,603.72 1108.05,603.73 1109.20,603.75 1110.35,603.76 1111.50,603.76 1112.65,603.81 1112.65,603.85 1113.80,603.90 1114.95,603.94 1116.10,603.97 1117.25,604.00 1118.40,604.02 1118.40,604.04 1119.55,604.07 1120.70,604.10 1121.85,604.11 1123.00,604.12 1123.00,604.13 1124.15,604.12 1125.30,604.09 1126.45,604.05 1127.60,604.01 1127.60,604.00 1128.75,604.02 1129.90,604.05 1131.05,604.04 1132.20,604.04 1132.20,604.02 1133.35,604.02 1134.50,604.05 1135.65,604.06 1136.80,604.09 1136.80,604.10 1137.95,604.12 1139.10,604.16 1140.25,604.18 1141.40,604.19 1141.40,604.19 1142.55,604.20 1143.70,604.24 1144.85,604.29 1146.00,604.36 1147.15,604.42 1147.15,604.48 1148.30,604.56 1149.45,604.63 1150.60,604.67 1151.75,604.68 1151.75,604.69 1152.90,604.72 1154.05,604.75 1155.20,604.81 1156.35,604.86 1156.35,604.91 1157.50,604.94 1158.65,604.95 1159.80,604.95 1160.95,604.96 1160.95,604.98 1162.10,605.02 1163.25,605.10 1164.40,605.19 1165.55,605.27 1166.70,605.36 1166.70,605.44 1167.85,605.53 1169.00,605.59 1170.15,605.68 1171.30,605.74 1171.30,605.80 1172.45,605.87 1173.60,605.95 1174.75,606.05 1175.90,606.15 1175.90,606.19 1177.05,606.23 1178.20,606.24 1179.35,606.24 1180.50,606.25 1180.50,606.27 1181.65,606.33 1182.80,606.38 1183.95,606.40 1185.10,606.40 1185.10,606.38 1186.25,606.36 1187.40,606.34 1188.55,606.31 1189.70,606.29 1190.85,606.28 1190.85,606.29 1192.00,606.32 1193.15,606.31 1194.30,606.32 1195.45,606.34 1195.45,606.37 1196.60,606.40 1197.75,606.43 1198.90,606.45 1200.05,606.49 1200.05,606.55 1201.20,606.60 1202.35,606.68 1203.50,606.72 1204.65,606.76 1204.65,606.78 1205.80,606.82 1206.95,606.88 1208.10,606.95 1209.25,607.01 1210.40,607.06 1210.40,607.12 1211.55,607.18 1212.70,607.20 1213.85,607.21 1215.00,607.19 1215.00,607.17 1216.15,607.20 1217.30,607.24 1218.45,607.27 1219.60,607.30 1219.60,607.35 1220.75,607.41 1221.90,607.50 1223.05,607.59 1224.20,607.66 1224.20,607.76 1225.35,607.83 1226.50,607.96 1227.65,608.08 1228.80,608.19 1228.80,608.30 1229.95,608.43 1231.10,608.54 1232.25,608.64 1233.40,608.73 1234.55,608.82 1234.55,608.91 1235.70,608.99 1236.85,609.06 1238.00,609.13" fill="none" stroke="#1f77b4" stroke-width="2.6"/>
<line x1="812" y1="66" x2="850" y2="66" stroke="#1f77b4" stroke-width="3"/>
<text class="legend" x="860" y="71">bs_e17.log (final 2.930, min 2.915, val_bpb 1.0502)</text>
<polyline points="88.00,109.67 88.00,96.34 88.00,114.69 88.00,129.80 88.00,161.48 88.00,189.04 88.00,212.25 88.00,232.01 88.00,249.71 88.00,265.47 88.00,279.08 88.00,291.44 90.30,302.96 91.45,312.46 93.75,321.34 94.90,329.30 97.20,336.19 99.50,342.76 100.65,348.81 102.95,354.22 104.10,359.12 106.40,363.53 107.55,367.41 109.85,371.20 112.15,374.45 113.30,377.77 115.60,380.64 116.75,383.49 119.05,385.80 121.35,388.44 122.50,391.16 124.80,393.35 125.95,395.50 128.25,397.35 130.55,399.42 131.70,401.56 134.00,403.62 135.15,405.52 137.45,407.57 139.75,409.44 140.90,411.05 143.20,412.95 144.35,414.48 146.65,416.47 148.95,418.14 150.10,419.53 152.40,421.23 153.55,423.11 155.85,424.82 158.15,426.54 159.30,428.13 161.60,429.87 162.75,431.40 165.05,432.85 166.20,434.35 168.50,435.67 170.80,436.88 171.95,438.13 174.25,439.69 175.40,441.00 177.70,442.25 180.00,443.99 181.15,445.51 183.45,446.81 184.60,448.50 186.90,449.99 189.20,451.55 190.35,452.39 192.65,453.86 193.80,455.33 196.10,456.96 198.40,458.18 199.55,459.63 201.85,461.00 203.00,462.27 205.30,463.95 207.60,465.10 208.75,466.25 211.05,467.42 212.20,468.63 214.50,470.39 216.80,471.61 217.95,473.20 220.25,474.49 221.40,476.03 223.70,477.51 226.00,478.51 227.15,479.50 229.45,481.66 230.60,483.17 232.90,484.34 235.20,485.38 236.35,486.53 238.65,488.07 239.80,489.05 242.10,491.01 244.40,492.75 245.55,493.44 247.85,494.72 249.00,496.31 251.30,497.41 253.60,498.66 254.75,499.96 257.05,500.88 258.20,502.37 260.50,503.48 262.80,504.59 263.95,505.71 266.25,506.50 267.40,507.27 269.70,508.46 272.00,509.91 273.15,511.44 275.45,512.13 277.75,513.02 278.90,513.98 281.20,515.22 282.35,516.56 284.65,517.46 286.95,518.27 288.10,519.12 290.40,519.94 291.55,520.76 293.85,522.10 296.15,522.71 297.30,523.86 299.60,524.57 300.75,525.40 303.05,526.49 305.35,526.65 306.50,527.74 308.80,529.06 309.95,529.47 312.25,530.50 314.55,531.19 315.70,531.54 318.00,531.88 319.15,532.55 321.45,533.24 323.75,533.48 324.90,534.40 327.20,535.16 328.35,535.83 330.65,537.52 332.95,538.50 334.10,539.06 336.40,539.22 337.55,539.97 339.85,540.82 342.15,541.40 343.30,541.62 345.60,542.03 347.90,542.66 349.05,543.05 351.35,542.95 352.50,543.02 354.80,542.79 357.10,543.75 358.25,544.32 360.55,544.51 361.70,545.10 364.00,545.65 366.30,545.97 367.45,547.02 369.75,547.14 370.90,547.97 373.20,548.40 375.50,549.02 376.65,549.43 378.95,549.84 380.10,550.44 382.40,550.26 384.70,550.68 385.85,550.29 388.15,550.91 389.30,550.87 391.60,551.12 393.90,551.54 395.05,551.43 397.35,551.91 398.50,552.33 400.80,552.56 403.10,553.24 404.25,553.72 406.55,554.40 408.85,554.44 410.00,554.41 412.30,554.22 413.45,554.72 415.75,555.08 418.05,555.00 419.20,555.20 421.50,555.19 422.65,555.28 424.95,555.68 427.25,555.83 428.40,556.35 430.70,556.39 431.85,557.02 434.15,557.12 436.45,557.43 437.60,557.52 439.90,558.03 441.05,558.25 443.35,558.72 445.65,559.02 446.80,559.48 449.10,560.30 450.25,561.47 452.55,562.06 454.85,562.42 456.00,562.88 458.30,562.86 460.60,562.52 461.75,562.78 464.05,563.02 465.20,563.15 467.50,563.24 469.80,563.53 470.95,563.96 473.25,564.05 474.40,563.91 476.70,564.12 479.00,563.95 480.15,563.76 482.45,564.22 483.60,563.76 485.90,563.73 488.20,563.80 489.35,564.24 491.65,564.19 492.80,563.99 495.10,563.63 497.40,564.23 498.55,564.30 500.85,563.96 502.00,564.06 504.30,564.21 506.60,564.37 507.75,564.41 510.05,564.25 512.35,564.21 513.50,564.09 515.80,564.49 516.95,565.81 519.25,566.18 521.55,566.29 522.70,566.16 525.00,566.12 526.15,566.04 528.45,566.29 530.75,566.33 531.90,566.71 534.20,566.85 535.35,567.34 537.65,567.76 539.95,568.41 541.10,568.68 543.40,568.51 544.55,568.60 546.85,568.50 549.15,568.75 550.30,568.84 552.60,568.92 553.75,568.85 556.05,568.99 558.35,569.48 559.50,570.27 561.80,569.85 562.95,570.20 565.25,570.55 567.55,570.51 568.70,570.42 571.00,571.14 573.30,571.33 574.45,570.86 576.75,570.73 577.90,570.86 580.20,570.47 582.50,571.26 583.65,571.63 585.95,571.56 587.10,571.89 589.40,572.26 591.70,572.32 592.85,572.08 595.15,572.15 596.30,572.10 598.60,572.08 600.90,572.58 602.05,572.46 604.35,572.25 605.50,572.46 607.80,572.39 610.10,572.82 611.25,572.37 613.55,572.01 614.70,571.63 617.00,571.98 619.30,572.89 620.45,573.33 622.75,573.74 623.90,573.50 626.20,573.66 628.50,573.30 629.65,573.11 631.95,573.20 633.10,573.25 635.40,573.21 637.70,573.39 638.85,573.20 641.15,573.74 643.45,573.81 644.60,574.02 646.90,574.31 648.05,574.61 650.35,574.83 652.65,574.78 653.80,574.60 656.10,574.83 657.25,575.27 659.55,575.46 661.85,575.27 663.00,575.59 665.30,575.52 666.45,575.41 668.75,575.31 671.05,575.91 672.20,575.89 674.50,575.94 675.65,576.14 677.95,576.61 680.25,577.04 681.40,577.14 683.70,577.24 684.85,577.06 687.15,577.23 689.45,577.29 690.60,577.08 692.90,576.71 694.05,577.02 696.35,576.79 698.65,576.80 699.80,577.36 702.10,577.61 703.25,577.35 705.55,577.36 707.85,577.47 709.00,577.32 711.30,577.25 712.45,577.35 714.75,578.28 717.05,578.44 718.20,578.27 720.50,578.43 721.65,579.23 723.95,579.30 726.25,579.05 727.40,579.16 729.70,579.50 730.85,580.15 733.15,580.67 735.45,580.67 736.60,580.59 738.90,580.83 740.05,580.86 742.35,581.32 744.65,581.61 745.80,582.12 748.10,582.50 750.40,581.99 751.55,582.17 753.85,582.36 755.00,582.37 757.30,583.01 759.60,583.57 760.75,583.95 763.05,584.42 764.20,584.06 766.50,583.95 768.80,584.00 769.95,583.86 772.25,583.82 773.40,583.99 775.70,583.62 778.00,583.50 779.15,583.64 781.45,583.33 782.60,583.60 784.90,583.17 787.20,583.52 788.35,583.38 790.65,583.88 791.80,584.01 794.10,583.95 796.40,584.02 797.55,583.54 799.85,584.86 801.00,584.82 803.30,585.14 805.60,585.37 806.75,585.40 809.05,585.14 810.20,584.99 812.50,585.36 814.80,585.03 815.95,585.23 818.25,585.45 819.40,585.92 821.70,585.82 824.00,585.82 825.15,586.58 827.45,586.29 828.60,586.40 830.90,586.52 833.20,586.97 834.35,586.84 836.65,587.02 837.80,586.89 840.10,586.86 842.40,587.00 843.55,587.86 845.85,588.21 847.00,587.74 849.30,587.73 851.60,588.21 852.75,588.25 855.05,588.78 856.20,588.73 858.50,588.94 860.80,588.65 861.95,588.74 864.25,589.27 866.55,589.13 867.70,588.88 870.00,588.34 871.15,588.96 873.45,588.91 875.75,589.40 876.90,589.31 879.20,589.30 880.35,588.65 882.65,588.48 884.95,589.33 886.10,590.35 888.40,590.82 889.55,590.68 891.85,590.84 894.15,590.79 895.30,591.00 897.60,591.19 898.75,591.42 901.05,591.26 903.35,590.47 904.50,590.56 906.80,590.53 907.95,590.18 910.25,590.41 912.55,590.96 913.70,590.61 916.00,590.62 917.15,590.69 919.45,590.61 921.75,590.93 922.90,591.01 925.20,590.93 926.35,590.89 928.65,590.75 930.95,590.11 932.10,590.84 934.40,590.64 935.55,591.58 937.85,591.71 940.15,592.21 941.30,591.75 943.60,592.29 944.75,592.62 947.05,592.71 949.35,592.13 950.50,591.96 952.80,592.65 953.95,593.16 956.25,593.88 958.55,593.69 959.70,594.10 962.00,593.87 963.15,593.60 965.45,593.25 967.75,593.14 968.90,592.66 971.20,593.03 973.50,593.16 974.65,593.70 976.95,593.79 978.10,593.75 980.40,594.60 982.70,594.43 983.85,594.33 986.15,594.48 987.30,594.15 989.60,594.38 991.90,594.40 993.05,594.66 995.35,594.40 996.50,594.39 998.80,594.01 1001.10,594.59 1002.25,594.73 1004.55,595.68 1005.70,596.29 1008.00,596.04 1010.30,596.01 1011.45,595.74 1013.75,595.83 1014.90,596.53 1017.20,595.89 1019.50,595.62 1020.65,596.22 1022.95,595.84 1024.10,595.51 1026.40,595.71 1028.70,596.01 1029.85,596.39 1032.15,596.74 1033.30,596.40 1035.60,596.06 1037.90,596.09 1039.05,595.67 1041.35,596.18 1042.50,595.96 1044.80,596.81 1047.10,596.82 1048.25,596.25 1050.55,596.71 1051.70,597.23 1054.00,597.79 1056.30,598.11 1057.45,597.64 1059.75,597.48 1060.90,598.00 1063.20,598.03 1065.50,597.84 1066.65,598.23 1068.95,598.27 1070.10,597.84 1072.40,597.70 1074.70,597.61 1075.85,597.85 1078.15,597.69 1080.45,598.03 1081.60,598.18 1083.90,598.51 1085.05,597.98 1087.35,597.68 1089.65,598.23 1090.80,598.42 1093.10,598.31 1094.25,598.34 1096.55,598.48 1098.85,598.58 1100.00,598.76 1102.30,598.58 1103.45,598.64 1105.75,598.68 1108.05,598.52 1109.20,598.70 1111.50,598.73 1112.65,598.83 1114.95,599.02 1117.25,598.87 1118.40,598.54 1120.70,598.82 1121.85,598.69 1124.15,598.97 1126.45,598.90 1127.60,598.54 1129.90,598.65 1131.05,598.13 1133.35,598.85 1135.65,598.66 1136.80,598.32 1139.10,598.60 1140.25,598.59 1142.55,599.06 1144.85,599.76 1146.00,599.72 1148.30,600.09 1149.45,600.59 1151.75,600.01 1154.05,600.19 1155.20,600.06 1157.50,599.54 1158.65,599.79 1160.95,600.08 1163.25,600.59 1164.40,600.29 1166.70,600.33 1167.85,600.32 1170.15,601.12 1172.45,601.49 1173.60,600.94 1175.90,601.27 1178.20,601.13 1179.35,600.72 1181.65,601.04 1182.80,601.39 1185.10,601.60 1187.40,601.33 1188.55,601.21 1190.85,601.46 1192.00,601.10 1194.30,601.13 1196.60,601.55 1197.75,601.50 1200.05,601.80 1201.20,602.21 1203.50,602.24 1205.80,602.68 1206.95,602.78 1209.25,603.05 1210.40,602.81 1212.70,602.55 1215.00,602.40 1216.15,602.28 1218.45,602.34 1219.60,602.19 1221.90,602.42 1224.20,602.36 1225.35,602.72 1227.65,602.89 1228.80,602.80 1231.10,602.70 1233.40,602.01 1234.55,601.85 1236.85,602.02" fill="none" stroke="#d62728" stroke-width="1" opacity="0.18"/>
<polyline points="88.00,109.67 88.00,103.01 88.00,106.90 88.00,112.62 88.00,122.40 88.00,133.50 88.00,144.75 88.00,155.66 88.00,166.11 88.00,176.05 88.00,185.41 88.00,194.25 90.30,202.61 91.45,210.46 93.75,217.85 94.90,224.81 97.20,231.37 99.50,237.55 100.65,243.41 102.95,248.95 104.10,254.20 106.40,259.17 107.55,263.87 109.85,268.34 112.15,272.59 113.30,283.31 115.60,294.68 116.75,305.44 119.05,315.68 121.35,324.76 122.50,332.84 124.80,340.08 125.95,346.62 128.25,352.53 130.55,357.89 131.70,362.79 134.00,367.27 135.15,371.38 137.45,375.18 139.75,378.71 140.90,381.98 143.20,385.05 144.35,387.91 146.65,390.62 148.95,393.18 150.10,395.59 152.40,397.90 153.55,400.13 155.85,402.27 158.15,404.36 159.30,406.37 161.60,408.34 162.75,410.26 165.05,412.14 166.20,413.98 168.50,415.76 170.80,417.50 171.95,419.20 174.25,420.90 175.40,422.56 177.70,424.19 180.00,425.80 181.15,427.40 183.45,428.97 184.60,430.53 186.90,432.09 189.20,433.64 190.35,435.15 192.65,436.65 193.80,438.13 196.10,439.63 198.40,441.11 199.55,442.57 201.85,444.02 203.00,445.45 205.30,446.88 207.60,448.29 208.75,449.68 211.05,451.07 212.20,452.44 214.50,453.83 216.80,455.22 217.95,456.62 220.25,458.01 221.40,459.41 223.70,460.82 226.00,462.20 227.15,463.56 229.45,464.96 230.60,466.34 232.90,467.72 235.20,469.07 236.35,470.44 238.65,471.80 239.80,473.15 242.10,474.52 244.40,475.90 245.55,477.25 247.85,478.60 249.00,479.96 251.30,481.30 253.60,482.64 254.75,483.99 257.05,485.33 258.20,486.68 260.50,488.00 262.80,489.32 263.95,490.62 266.25,491.90 267.40,493.15 269.70,494.39 272.00,495.65 273.15,496.92 275.45,498.14 277.75,499.34 278.90,500.52 281.20,501.72 282.35,502.92 284.65,504.09 286.95,505.26 288.10,506.39 290.40,507.47 291.55,508.57 293.85,509.66 296.15,510.72 297.30,511.78 299.60,512.81 300.75,513.83 303.05,514.85 305.35,515.82 306.50,516.80 308.80,517.77 309.95,518.72 312.25,519.68 314.55,520.64 315.70,521.56 318.00,522.44 319.15,523.29 321.45,524.13 323.75,524.95 324.90,525.77 327.20,526.56 328.35,527.33 330.65,528.14 332.95,528.95 334.10,529.74 336.40,530.51 337.55,531.28 339.85,532.03 342.15,532.78 343.30,533.49 345.60,534.19 347.90,534.88 349.05,535.54 351.35,536.19 352.50,536.80 354.80,537.35 357.10,537.93 358.25,538.48 360.55,539.01 361.70,539.55 364.00,540.10 366.30,540.64 367.45,541.19 369.75,541.74 370.90,542.28 373.20,542.81 375.50,543.34 376.65,543.82 378.95,544.27 380.10,544.72 382.40,545.17 384.70,545.59 385.85,545.97 388.15,546.35 389.30,546.72 391.60,547.09 393.90,547.44 395.05,547.78 397.35,548.14 398.50,548.51 400.80,548.90 403.10,549.28 404.25,549.65 406.55,550.05 408.85,550.42 410.00,550.77 412.30,551.10 413.45,551.41 415.75,551.73 418.05,552.01 419.20,552.28 421.50,552.53 422.65,552.76 424.95,553.00 427.25,553.21 428.40,553.46 430.70,553.68 431.85,553.95 434.15,554.20 436.45,554.46 437.60,554.72 439.90,554.98 441.05,555.25 443.35,555.52 445.65,555.79 446.80,556.07 449.10,556.35 450.25,556.66 452.55,556.97 454.85,557.29 456.00,557.63 458.30,557.97 460.60,558.28 461.75,558.59 464.05,558.91 465.20,559.23 467.50,559.55 469.80,559.88 470.95,560.21 473.25,560.54 474.40,560.85 476.70,561.15 479.00,561.43 480.15,561.70 482.45,561.97 483.60,562.22 485.90,562.45 488.20,562.67 489.35,562.89 491.65,563.10 492.80,563.28 495.10,563.41 497.40,563.52 498.55,563.61 500.85,563.67 502.00,563.72 504.30,563.77 506.60,563.85 507.75,563.91 510.05,563.96 512.35,564.00 513.50,564.04 515.80,564.08 516.95,564.15 519.25,564.24 521.55,564.33 522.70,564.41 525.00,564.50 526.15,564.59 528.45,564.67 530.75,564.78 531.90,564.89 534.20,565.02 535.35,565.14 537.65,565.28 539.95,565.46 541.10,565.66 543.40,565.83 544.55,566.01 546.85,566.19 549.15,566.38 550.30,566.56 552.60,566.74 553.75,566.92 556.05,567.11 558.35,567.32 559.50,567.57 561.80,567.78 562.95,567.96 565.25,568.13 567.55,568.30 568.70,568.47 571.00,568.67 573.30,568.88 574.45,569.07 576.75,569.24 577.90,569.41 580.20,569.55 582.50,569.71 583.65,569.86 585.95,569.99 587.10,570.12 589.40,570.27 591.70,570.42 592.85,570.56 595.15,570.70 596.30,570.83 598.60,570.95 600.90,571.10 602.05,571.24 604.35,571.35 605.50,571.44 607.80,571.54 610.10,571.65 611.25,571.72 613.55,571.78 614.70,571.83 617.00,571.86 619.30,571.92 620.45,572.02 622.75,572.14 623.90,572.25 626.20,572.38 628.50,572.46 629.65,572.52 631.95,572.58 633.10,572.64 635.40,572.67 637.70,572.72 638.85,572.76 641.15,572.83 643.45,572.89 644.60,572.97 646.90,573.04 648.05,573.13 650.35,573.23 652.65,573.32 653.80,573.41 656.10,573.49 657.25,573.61 659.55,573.75 661.85,573.89 663.00,574.04 665.30,574.14 666.45,574.22 668.75,574.29 671.05,574.38 672.20,574.47 674.50,574.58 675.65,574.70 677.95,574.84 680.25,574.99 681.40,575.15 683.70,575.30 684.85,575.45 687.15,575.59 689.45,575.73 690.60,575.85 692.90,575.95 694.05,576.05 696.35,576.13 698.65,576.21 699.80,576.32 702.10,576.43 703.25,576.51 705.55,576.59 707.85,576.67 709.00,576.74 711.30,576.81 712.45,576.89 714.75,577.01 717.05,577.11 718.20,577.21 720.50,577.31 721.65,577.43 723.95,577.54 726.25,577.62 727.40,577.70 729.70,577.79 730.85,577.91 733.15,578.05 735.45,578.18 736.60,578.33 738.90,578.49 740.05,578.64 742.35,578.82 744.65,579.02 745.80,579.21 748.10,579.40 750.40,579.59 751.55,579.78 753.85,579.98 755.00,580.18 757.30,580.41 759.60,580.66 760.75,580.88 763.05,581.12 764.20,581.36 766.50,581.58 768.80,581.77 769.95,581.95 772.25,582.14 773.40,582.33 775.70,582.50 778.00,582.63 779.15,582.75 781.45,582.86 782.60,582.98 784.90,583.07 787.20,583.18 788.35,583.26 790.65,583.35 791.80,583.43 794.10,583.49 796.40,583.57 797.55,583.62 799.85,583.72 801.00,583.82 803.30,583.91 805.60,583.98 806.75,584.03 809.05,584.06 810.20,584.10 812.50,584.16 814.80,584.20 815.95,584.25 818.25,584.32 819.40,584.40 821.70,584.48 824.00,584.58 825.15,584.69 827.45,584.81 828.60,584.92 830.90,585.06 833.20,585.20 834.35,585.33 836.65,585.46 837.80,585.57 840.10,585.69 842.40,585.81 843.55,585.98 845.85,586.12 847.00,586.23 849.30,586.34 851.60,586.45 852.75,586.56 855.05,586.71 856.20,586.86 858.50,587.00 860.80,587.15 861.95,587.29 864.25,587.44 866.55,587.57 867.70,587.69 870.00,587.79 871.15,587.89 873.45,587.99 875.75,588.11 876.90,588.22 879.20,588.32 880.35,588.39 882.65,588.45 884.95,588.55 886.10,588.69 888.40,588.84 889.55,588.95 891.85,589.06 894.15,589.18 895.30,589.31 897.60,589.43 898.75,589.56 901.05,589.65 903.35,589.72 904.50,589.79 906.80,589.86 907.95,589.92 910.25,589.97 912.55,590.04 913.70,590.11 916.00,590.20 917.15,590.27 919.45,590.34 921.75,590.40 922.90,590.47 925.20,590.53 926.35,590.62 928.65,590.71 930.95,590.74 932.10,590.76 934.40,590.76 935.55,590.79 937.85,590.83 940.15,590.88 941.30,590.91 943.60,590.96 944.75,591.01 947.05,591.06 949.35,591.13 950.50,591.19 952.80,591.27 953.95,591.39 956.25,591.53 958.55,591.64 959.70,591.78 962.00,591.91 963.15,592.03 965.45,592.13 967.75,592.22 968.90,592.29 971.20,592.37 973.50,592.46 974.65,592.58 976.95,592.73 978.10,592.84 980.40,593.00 982.70,593.11 983.85,593.22 986.15,593.31 987.30,593.41 989.60,593.49 991.90,593.56 993.05,593.64 995.35,593.73 996.50,593.83 998.80,593.88 1001.10,593.94 1002.25,593.97 1004.55,594.05 1005.70,594.14 1008.00,594.23 1010.30,594.32 1011.45,594.42 1013.75,594.53 1014.90,594.68 1017.20,594.80 1019.50,594.90 1020.65,595.00 1022.95,595.08 1024.10,595.15 1026.40,595.19 1028.70,595.26 1029.85,595.34 1032.15,595.43 1033.30,595.52 1035.60,595.59 1037.90,595.66 1039.05,595.70 1041.35,595.77 1042.50,595.83 1044.80,595.94 1047.10,596.03 1048.25,596.09 1050.55,596.13 1051.70,596.17 1054.00,596.24 1056.30,596.32 1057.45,596.40 1059.75,596.47 1060.90,596.52 1063.20,596.61 1065.50,596.70 1066.65,596.78 1068.95,596.88 1070.10,596.97 1072.40,597.05 1074.70,597.11 1075.85,597.17 1078.15,597.21 1080.45,597.28 1081.60,597.36 1083.90,597.46 1085.05,597.55 1087.35,597.61 1089.65,597.70 1090.80,597.77 1093.10,597.82 1094.25,597.91 1096.55,597.98 1098.85,598.03 1100.00,598.07 1102.30,598.09 1103.45,598.13 1105.75,598.18 1108.05,598.20 1109.20,598.23 1111.50,598.26 1112.65,598.29 1114.95,598.32 1117.25,598.36 1118.40,598.39 1120.70,598.44 1121.85,598.47 1124.15,598.52 1126.45,598.56 1127.60,598.57 1129.90,598.58 1131.05,598.58 1133.35,598.63 1135.65,598.65 1136.80,598.64 1139.10,598.66 1140.25,598.67 1142.55,598.69 1144.85,598.74 1146.00,598.77 1148.30,598.84 1149.45,598.91 1151.75,598.97 1154.05,599.03 1155.20,599.09 1157.50,599.12 1158.65,599.16 1160.95,599.20 1163.25,599.27 1164.40,599.34 1166.70,599.40 1167.85,599.46 1170.15,599.55 1172.45,599.65 1173.60,599.75 1175.90,599.86 1178.20,599.98 1179.35,600.05 1181.65,600.15 1182.80,600.27 1185.10,600.39 1187.40,600.50 1188.55,600.58 1190.85,600.65 1192.00,600.71 1194.30,600.75 1196.60,600.79 1197.75,600.85 1200.05,600.91 1201.20,601.00 1203.50,601.11 1205.80,601.22 1206.95,601.33 1209.25,601.43 1210.40,601.53 1212.70,601.62 1215.00,601.70 1216.15,601.75 1218.45,601.78 1219.60,601.83 1221.90,601.88 1224.20,601.93 1225.35,602.01 1227.65,602.08 1228.80,602.14 1231.10,602.18 1233.40,602.21 1234.55,602.23 1236.85,602.26" fill="none" stroke="#d62728" stroke-width="2.6"/>
<line x1="812" y1="90" x2="850" y2="90" stroke="#d62728" stroke-width="3"/>
<text class="legend" x="860" y="95">run.log (final 3.015, min 3.002, val_bpb 1.0737)</text>
<polyline points="88.00,109.68 88.00,94.96 88.00,122.50 88.00,165.52 88.00,196.69 88.00,223.67 88.00,245.80 88.00,264.47 88.00,280.41 88.00,293.91 88.00,305.65 88.00,316.02 89.15,324.71 89.15,332.35 90.30,339.25 91.45,344.92 92.60,350.02 92.60,355.14 93.75,359.72 94.90,363.88 96.05,367.46 96.05,370.91 97.20,374.28 98.35,377.51 99.50,380.54 99.50,384.08 100.65,387.01 101.80,389.51 102.95,391.97 102.95,394.70 104.10,397.19 105.25,399.67 106.40,402.22 106.40,404.47 107.55,406.99 108.70,409.42 109.85,411.43 109.85,413.82 111.00,416.01 112.15,418.22 112.15,420.43 113.30,422.57 114.45,424.51 115.60,426.68 115.60,428.59 116.75,430.22 117.90,431.82 119.05,433.68 119.05,435.40 120.20,437.02 121.35,438.80 122.50,440.66 122.50,442.72 123.65,444.07 124.80,445.74 125.95,447.39 125.95,449.04 127.10,450.33 128.25,451.39 129.40,453.18 129.40,454.76 130.55,456.76 131.70,458.27 132.85,459.59 132.85,460.90 134.00,462.31 135.15,464.04 136.30,465.26 136.30,466.78 137.45,468.42 138.60,469.76 139.75,471.73 139.75,473.04 140.90,474.57 142.05,475.74 142.05,477.22 143.20,478.79 144.35,480.64 145.50,482.35 145.50,483.70 146.65,485.17 147.80,486.42 148.95,488.02 148.95,489.49 150.10,490.87 151.25,491.62 152.40,493.06 152.40,494.75 153.55,495.93 154.70,497.48 155.85,498.86 155.85,499.69 157.00,500.86 158.15,502.25 159.30,503.45 159.30,505.05 160.45,506.28 161.60,507.72 162.75,509.40 162.75,510.50 163.90,511.00 165.05,511.72 166.20,512.79 166.20,514.07 167.35,514.98 168.50,515.88 169.65,516.77 169.65,517.72 170.80,519.01 171.95,520.31 171.95,521.28 173.10,521.58 174.25,522.04 175.40,522.58 175.40,523.55 176.55,524.08 177.70,524.49 178.85,525.46 178.85,526.11 180.00,526.67 181.15,526.93 182.30,527.78 182.30,528.47 183.45,529.27 184.60,529.94 185.75,530.64 185.75,531.48 186.90,531.73 188.05,531.85 189.20,532.66 189.20,533.37 190.35,534.24 191.50,534.42 192.65,534.56 192.65,535.33 193.80,535.49 194.95,536.09 196.10,536.74 196.10,537.59 197.25,537.99 198.40,538.68 199.55,538.95 199.55,539.14 200.70,539.45 201.85,539.75 203.00,539.82 203.00,539.92 204.15,540.75 205.30,540.63 206.45,540.96 206.45,541.29 207.60,541.47 208.75,541.89 208.75,542.22 209.90,542.45 211.05,542.53 212.20,542.78 212.20,542.52 213.35,542.66 214.50,542.75 215.65,543.45 215.65,544.02 216.80,544.86 217.95,545.14 219.10,545.82 219.10,546.48 220.25,547.00 221.40,547.11 222.55,546.55 222.55,547.26 223.70,547.50 224.85,547.44 226.00,547.81 226.00,547.81 227.15,548.47 228.30,548.11 229.45,547.96 229.45,549.32 230.60,549.20 231.75,549.53 232.90,549.93 232.90,550.04 234.05,550.41 235.20,549.99 236.35,550.64 236.35,551.15 237.50,550.96 238.65,551.19 238.65,551.88 239.80,552.01 240.95,553.01 242.10,553.89 242.10,553.99 243.25,554.46 244.40,554.34 245.55,553.90 245.55,553.68 246.70,553.80 247.85,553.62 249.00,554.25 249.00,554.61 250.15,554.67 251.30,555.20 252.45,555.18 252.45,555.72 253.60,555.68 254.75,555.76 255.90,555.69 255.90,555.76 257.05,556.05 258.20,556.65 259.35,556.54 259.35,556.67 260.50,556.73 261.65,556.65 262.80,556.65 262.80,556.76 263.95,556.45 265.10,556.65 266.25,556.29 266.25,556.02 267.40,556.13 268.55,556.15 268.55,556.59 269.70,556.54 270.85,557.32 272.00,557.01 272.00,556.84 273.15,557.22 274.30,557.30 275.45,557.39 275.45,557.61 276.60,557.83 277.75,558.27 278.90,558.51 278.90,558.79 280.05,558.78 281.20,558.73 282.35,558.46 282.35,558.35 283.50,558.72 284.65,558.95 285.80,558.96 285.80,559.00 286.95,559.40 288.10,559.32 289.25,559.28 289.25,559.85 290.40,559.59 291.55,559.48 292.70,559.68 292.70,559.42 293.85,559.96 295.00,559.93 296.15,560.29 296.15,559.89 297.30,560.22 298.45,560.78 298.45,561.37 299.60,560.81 300.75,560.82 301.90,561.17 301.90,561.40 303.05,562.21 304.20,562.11 305.35,561.86 305.35,561.34 306.50,561.70 307.65,561.16 308.80,561.36 308.80,561.50 309.95,561.30 311.10,561.47 312.25,561.25 312.25,561.07 313.40,561.22 314.55,561.22 315.70,561.34 315.70,561.57 316.85,561.13 318.00,561.35 319.15,561.75 319.15,561.95 320.30,562.16 321.45,562.85 322.60,562.74 322.60,561.80 323.75,562.08 324.90,563.26 324.90,563.55 326.05,563.77 327.20,563.75 328.35,563.26 328.35,562.99 329.50,563.83 330.65,564.00 331.80,563.91 331.80,563.70 332.95,564.12 334.10,564.22 335.25,564.35 335.25,564.24 336.40,564.05 337.55,563.99 338.70,563.82 338.70,564.16 339.85,563.93 341.00,564.09 342.15,564.27 342.15,563.85 343.30,563.52 344.45,563.28 345.60,563.40 345.60,562.83 346.75,563.38 347.90,564.00 349.05,564.52 349.05,564.67 350.20,565.31 351.35,565.01 352.50,565.19 352.50,565.33 353.65,565.65 354.80,565.68 355.95,565.40 355.95,565.82 357.10,565.71 358.25,566.38 359.40,566.34 359.40,566.02 360.55,565.90 361.70,566.36 362.85,565.97 362.85,566.11 364.00,566.04 365.15,566.38 365.15,566.66 366.30,566.68 367.45,566.41 368.60,566.83 368.60,567.22 369.75,567.56 370.90,567.12 372.05,566.73 372.05,566.26 373.20,566.48 374.35,567.03 375.50,566.49 375.50,566.38 376.65,566.80 377.80,566.95 378.95,567.02 378.95,566.78 380.10,566.91 381.25,567.54 382.40,567.80 382.40,567.71 383.55,567.45 384.70,568.11 385.85,568.31 385.85,568.62 387.00,568.79 388.15,568.78 389.30,568.69 389.30,568.22 390.45,568.65 391.60,568.84 392.75,569.04 392.75,568.95 393.90,569.42 395.05,570.08 396.20,569.85 396.20,569.88 397.35,569.50 398.50,569.54 399.65,569.05 399.65,569.02 400.80,569.28 401.95,569.22 401.95,569.35 403.10,569.34 404.25,569.00 405.40,568.88 405.40,568.85 406.55,568.93 407.70,568.60 408.85,568.44 408.85,568.25 410.00,568.99 411.15,569.16 412.30,569.32 412.30,569.88 413.45,569.74 414.60,569.90 415.75,569.77 415.75,569.61 416.90,569.76 418.05,570.16 419.20,570.52 419.20,570.43 420.35,570.13 421.50,570.48 422.65,570.60 422.65,570.47 423.80,570.25 424.95,570.69 426.10,571.49 426.10,571.46 427.25,571.75 428.40,572.00 429.55,572.12 429.55,572.20 430.70,572.44 431.85,572.65 433.00,572.63 433.00,572.44 434.15,573.04 435.30,573.99 436.45,574.49 436.45,574.87 437.60,574.90 438.75,575.04 438.75,575.18 439.90,574.41 441.05,574.74 442.20,574.59 442.20,574.29 443.35,573.89 444.50,573.74 445.65,574.04 445.65,574.26 446.80,574.44 447.95,573.97 449.10,574.06 449.10,573.53 450.25,573.69 451.40,573.27 452.55,573.61 452.55,574.05 453.70,574.47 454.85,574.24 456.00,574.33 456.00,574.26 457.15,574.13 458.30,574.33 459.45,574.52 459.45,574.28 460.60,574.09 461.75,573.57 462.90,573.44 462.90,573.64 464.05,573.35 465.20,573.84 466.35,573.35 466.35,574.02 467.50,573.94 468.65,573.39 469.80,573.46 469.80,573.92 470.95,574.34 472.10,573.85 473.25,573.44 473.25,573.47 474.40,573.29 475.55,573.06 475.55,573.42 476.70,573.20 477.85,573.93 479.00,574.51 479.00,574.61 480.15,574.53 481.30,574.12 482.45,573.51 482.45,573.63 483.60,573.50 484.75,573.69 485.90,574.31 485.90,574.43 487.05,574.91 488.20,574.87 489.35,575.07 489.35,574.84 490.50,574.90 491.65,574.88 492.80,574.78 492.80,574.63 493.95,575.06 495.10,575.32 496.25,575.68 496.25,576.82 497.40,577.54 498.55,577.69 499.70,577.85 499.70,577.80 500.85,577.98 502.00,577.62 503.15,577.75 503.15,577.54 504.30,577.18 505.45,576.93 506.60,576.75 506.60,576.84 507.75,576.77 508.90,576.68 510.05,577.23 510.05,577.46 511.20,577.63 512.35,577.55 513.50,577.74 513.50,578.09 514.65,577.65 515.80,577.52 516.95,577.90 516.95,578.36 518.10,578.28 519.25,578.50 519.25,578.32 520.40,578.09 521.55,578.52 522.70,578.54 522.70,578.96 523.85,578.88 525.00,578.71 526.15,578.86 526.15,578.57 527.30,578.72 528.45,578.85 529.60,578.81 529.60,579.18 530.75,578.98 531.90,578.99 533.05,579.06 533.05,579.02 534.20,579.41 535.35,578.92 536.50,579.70 536.50,579.63 537.65,579.16 538.80,579.11 539.95,579.41 539.95,580.05 541.10,580.28 542.25,579.97 543.40,579.88 543.40,580.66 544.55,580.26 545.70,580.07 546.85,580.72 546.85,580.67 548.00,581.47 549.15,581.65 550.30,581.04 550.30,581.37 551.45,581.20 552.60,581.89 553.75,581.86 553.75,581.48 554.90,580.96 556.05,581.64 557.20,581.71 557.20,582.33 558.35,582.55 559.50,582.74 560.65,582.61 560.65,582.82 561.80,583.03 562.95,582.77 564.10,582.99 564.10,582.81 565.25,582.81 566.40,582.81 567.55,582.46 567.55,582.37 568.70,582.37 569.85,582.23 569.85,582.10 571.00,582.00 572.15,582.64 573.30,582.52 573.30,582.86 574.45,581.82 575.60,581.80 576.75,581.99 576.75,581.83 577.90,582.01 579.05,582.19 580.20,582.02 580.20,582.04 581.35,581.94 582.50,582.35 583.65,582.27 583.65,581.85 584.80,581.90 585.95,581.65 587.10,581.57 587.10,581.18 588.25,581.65 589.40,582.01 590.55,582.01 590.55,581.98 591.70,582.87 592.85,583.22 594.00,583.41 594.00,583.80 595.15,584.05 596.30,583.72 597.45,583.41 597.45,583.53 598.60,583.56 599.75,583.20 600.90,583.60 600.90,583.29 602.05,583.72 603.20,583.70 604.35,583.66 604.35,583.58 605.50,582.88 606.65,582.86 607.80,582.69 607.80,582.85 608.95,583.02 610.10,582.79 611.25,583.20 611.25,583.34 612.40,583.77 613.55,583.76 614.70,583.92 614.70,584.07 615.85,584.38 617.00,584.58 618.15,584.34 618.15,584.55 619.30,584.82 620.45,585.03 621.60,585.17 621.60,585.04 622.75,585.03 623.90,584.82 625.05,584.93 625.05,585.08 626.20,585.36 627.35,585.71 627.35,586.08 628.50,586.13 629.65,586.05 630.80,585.73 630.80,586.02 631.95,585.96 633.10,586.07 634.25,585.89 634.25,586.20 635.40,586.01 636.55,585.60 637.70,585.41 637.70,585.33 638.85,585.89 640.00,586.42 641.15,586.30 641.15,586.22 642.30,586.21 643.45,585.91 644.60,585.90 644.60,586.03 645.75,586.38 646.90,585.79 648.05,586.23 648.05,586.35 649.20,586.40 650.35,586.46 651.50,586.56 651.50,586.57 652.65,586.57 653.80,586.51 654.95,586.76 654.95,586.40 656.10,586.48 657.25,586.65 658.40,586.46 658.40,585.80 659.55,585.57 660.70,585.77 661.85,586.25 661.85,585.87 663.00,585.73 664.15,586.25 665.30,586.65 665.30,586.62 666.45,587.16 667.60,586.73 668.75,587.00 668.75,586.75 669.90,586.52 671.05,586.42 672.20,586.46 672.20,586.42 673.35,586.57 674.50,587.07 675.65,586.92 675.65,587.28 676.80,587.23 677.95,587.06 679.10,587.08 679.10,587.21 680.25,588.07 681.40,588.17 682.55,588.30 682.55,587.40 683.70,587.42 684.85,587.27 684.85,587.44 686.00,587.91 687.15,588.76 688.30,588.61 688.30,588.64 689.45,589.04 690.60,588.69 691.75,588.23 691.75,588.30 692.90,588.09 694.05,588.49 695.20,588.50 695.20,588.75 696.35,589.37 697.50,589.84 698.65,589.49 698.65,589.47 699.80,590.01 700.95,589.86 702.10,589.97 702.10,590.11 703.25,589.80 704.40,589.80 705.55,590.28 705.55,590.66 706.70,590.15 707.85,590.39 709.00,590.61 709.00,591.08 710.15,591.56 711.30,591.85 712.45,591.94 712.45,591.31 713.60,590.75 714.75,590.61 715.90,590.75 715.90,590.88 717.05,590.96 718.20,590.91 719.35,590.83 719.35,591.45 720.50,591.24 721.65,591.79 722.80,591.53 722.80,591.88 723.95,591.87 725.10,592.39 726.25,592.21 726.25,591.91 727.40,591.53 728.55,590.75 729.70,590.76 729.70,590.93 730.85,590.55 732.00,590.57 733.15,590.39 733.15,590.52 734.30,590.11 735.45,590.40 736.60,590.45 736.60,590.19 737.75,590.33 738.90,590.27 740.05,591.01 740.05,591.10 741.20,591.32 742.35,590.96 742.35,591.35 743.50,591.57 744.65,591.89 745.80,592.37 745.80,591.79 746.95,591.96 748.10,592.22 749.25,591.77 749.25,591.56 750.40,591.97 751.55,591.71 752.70,591.60 752.70,591.76 753.85,591.69 755.00,591.59 756.15,591.72 756.15,591.81 757.30,591.29 758.45,591.38 759.60,592.70 759.60,593.15 760.75,593.01 761.90,592.84 763.05,593.12 763.05,593.15 764.20,593.35 765.35,593.34 766.50,593.35 766.50,593.21 767.65,592.94 768.80,593.09 769.95,592.88 769.95,592.56 771.10,592.93 772.25,592.95 773.40,592.56 773.40,592.75 774.55,592.86 775.70,592.93 776.85,593.08 776.85,592.85 778.00,593.28 779.15,593.86 780.30,593.61 780.30,593.75 781.45,593.61 782.60,594.34 783.75,594.92 783.75,594.90 784.90,594.44 786.05,594.61 787.20,594.56 787.20,594.69 788.35,594.65 789.50,594.54 790.65,594.70 790.65,594.99 791.80,594.67 792.95,594.32 794.10,594.41 794.10,594.55 795.25,594.37 796.40,594.82 797.55,594.68 797.55,594.50 798.70,594.47 799.85,594.46 801.00,595.23 801.00,595.01 802.15,595.28 803.30,594.81 804.45,594.31 804.45,593.92 805.60,593.92 806.75,594.28 807.90,594.76 807.90,594.83 809.05,594.85 810.20,595.06 811.35,595.51 811.35,596.17 812.50,596.01 813.65,596.16 813.65,596.23 814.80,596.06 815.95,595.71 817.10,595.94 817.10,595.84 818.25,596.05 819.40,596.43 820.55,596.12 820.55,595.86 821.70,595.65 822.85,595.31 824.00,595.60 824.00,594.92 825.15,594.71 826.30,595.23 827.45,595.51 827.45,595.41 828.60,594.92 829.75,595.39 830.90,595.42 830.90,595.29 832.05,595.34 833.20,595.30 834.35,595.57 834.35,594.82 835.50,594.98 836.65,594.71 837.80,594.45 837.80,594.35 838.95,595.19 840.10,596.16 841.25,596.28 841.25,596.48 842.40,596.92 843.55,596.69 844.70,596.37 844.70,596.19 845.85,596.41 847.00,596.36 848.15,595.99 848.15,596.28 849.30,595.85 850.45,596.12 851.60,595.60 851.60,595.99 852.75,595.47 853.90,595.45 855.05,595.67 855.05,595.05 856.20,595.51 857.35,595.65 858.50,595.71 858.50,595.69 859.65,595.72 860.80,595.40 861.95,595.35 861.95,595.63 863.10,595.84 864.25,595.66 865.40,596.23 865.40,595.89 866.55,595.88 867.70,595.92 868.85,595.43 868.85,595.56 870.00,595.37 871.15,595.40 872.30,594.94 872.30,595.34 873.45,596.20 874.60,596.30 875.75,596.76 875.75,596.64 876.90,597.00 878.05,596.86 879.20,597.51 879.20,597.20 880.35,597.13 881.50,596.43 882.65,596.09 882.65,596.73 883.80,597.11 884.95,596.78 886.10,596.31 886.10,597.19 887.25,597.36 888.40,597.46 888.40,597.32 889.55,597.80 890.70,597.36 891.85,596.86 891.85,597.25 893.00,597.73 894.15,597.21 895.30,597.53 895.30,597.17 896.45,597.33 897.60,597.36 898.75,596.77 898.75,597.35 899.90,597.13 901.05,597.23 902.20,597.89 902.20,598.18 903.35,598.64 904.50,599.13 905.65,599.76 905.65,599.78 906.80,599.47 907.95,599.36 909.10,599.68 909.10,599.26 910.25,599.16 911.40,598.90 912.55,598.58 912.55,598.28 913.70,598.51 914.85,598.15 916.00,598.02 916.00,597.91 917.15,598.07 918.30,597.61 919.45,597.97 919.45,598.33 920.60,599.15 921.75,599.21 922.90,599.69 922.90,600.13 924.05,600.12 925.20,599.49 926.35,599.42 926.35,599.91 927.50,600.66 928.65,600.84 929.80,600.68 929.80,600.44 930.95,600.23 932.10,600.04 933.25,599.75 933.25,599.90 934.40,599.53 935.55,600.29 936.70,600.45 936.70,600.35 937.85,600.16 939.00,600.10 940.15,600.32 940.15,600.00 941.30,599.75 942.45,599.89 943.60,599.85 943.60,599.65 944.75,599.50 945.90,599.17 947.05,599.80 947.05,599.07 948.20,599.32 949.35,599.87 950.50,600.88 950.50,600.54 951.65,600.00 952.80,600.73 952.80,600.53 953.95,600.20 955.10,600.32 956.25,600.68 956.25,600.47 957.40,600.91 958.55,601.01 959.70,600.80 959.70,601.55 960.85,601.70 962.00,601.03 963.15,601.34 963.15,601.04 964.30,601.26 965.45,601.78 966.60,601.71 966.60,601.25 967.75,601.15 968.90,601.09 970.05,600.78 970.05,600.95 971.20,600.75 972.35,601.08 973.50,600.86 973.50,601.28 974.65,601.14 975.80,601.50 976.95,601.31 976.95,601.03 978.10,601.20 979.25,600.88 980.40,601.41 980.40,601.39 981.55,601.85 982.70,601.37 983.85,601.38 983.85,601.81 985.00,601.82 986.15,601.51 987.30,601.11 987.30,601.92 988.45,601.98 989.60,601.95 990.75,602.55 990.75,601.89 991.90,602.12 993.05,602.46 994.20,602.32 994.20,602.77 995.35,602.52 996.50,603.06 997.65,603.00 997.65,603.72 998.80,603.92 999.95,603.34 1001.10,602.98 1001.10,602.80 1002.25,602.76 1003.40,603.21 1004.55,602.95 1004.55,602.94 1005.70,602.87 1006.85,602.66 1008.00,602.79 1008.00,603.17 1009.15,602.92 1010.30,602.96 1011.45,603.03 1011.45,602.58 1012.60,602.38 1013.75,602.25 1014.90,602.44 1014.90,602.35 1016.05,602.66 1017.20,602.83 1018.35,603.07 1018.35,602.83 1019.50,602.77 1020.65,603.08 1021.80,602.82 1021.80,602.96 1022.95,603.28 1024.10,603.56 1025.25,603.43 1025.25,603.66 1026.40,603.05 1027.55,602.70 1028.70,602.61 1028.70,603.09 1029.85,603.22 1031.00,603.35 1032.15,603.06 1032.15,602.95 1033.30,603.44 1034.45,603.44 1034.45,603.26 1035.60,603.38 1036.75,603.00 1037.90,603.13 1037.90,603.25 1039.05,603.41 1040.20,603.63 1041.35,603.41 1041.35,603.11 1042.50,603.13 1043.65,602.88 1044.80,603.01 1044.80,602.59 1045.95,602.56 1047.10,602.65 1048.25,602.83 1048.25,603.12 1049.40,603.19 1050.55,602.92 1051.70,603.03 1051.70,602.84 1052.85,603.07 1054.00,603.71 1055.15,603.57 1055.15,604.08 1056.30,603.70 1057.45,603.70 1058.60,603.95 1058.60,603.60 1059.75,603.66 1060.90,603.51 1062.05,603.78 1062.05,604.45 1063.20,604.31 1064.35,604.85 1065.50,604.37 1065.50,604.48 1066.65,604.46 1067.80,604.19 1068.95,603.60 1068.95,603.01 1070.10,603.18 1071.25,603.87 1072.40,603.65 1072.40,604.53 1073.55,604.11 1074.70,604.39 1075.85,604.56 1075.85,603.81 1077.00,603.96 1078.15,603.89 1079.30,604.25 1079.30,604.90 1080.45,605.51 1081.60,605.65 1082.75,605.52 1082.75,606.05 1083.90,606.32 1085.05,606.52 1086.20,606.40 1086.20,606.75 1087.35,606.05 1088.50,605.95 1089.65,606.05 1089.65,605.62 1090.80,605.87 1091.95,605.63 1093.10,605.05 1093.10,604.73 1094.25,604.92 1095.40,604.31 1096.55,604.68 1096.55,605.12 1097.70,605.56 1098.85,605.21 1100.00,604.68 1100.00,604.45 1101.15,604.62 1102.30,605.24 1103.45,605.25 1103.45,604.89 1104.60,605.73 1105.75,606.16 1106.90,607.06 1106.90,607.31 1108.05,606.67 1109.20,606.31 1110.35,606.56 1110.35,606.83 1111.50,606.63 1112.65,606.65 1113.80,606.15 1113.80,606.20 1114.95,606.48 1116.10,606.17 1117.25,606.53 1117.25,605.99 1118.40,606.24 1119.55,606.46 1120.70,606.23 1120.70,606.48 1121.85,606.29 1123.00,606.43 1123.00,606.67 1124.15,607.00 1125.30,606.57 1126.45,606.57 1126.45,606.75 1127.60,606.74 1128.75,607.11 1129.90,607.63 1129.90,607.52 1131.05,607.79 1132.20,607.97 1133.35,608.06 1133.35,608.51 1134.50,608.80 1135.65,608.73 1136.80,608.52 1136.80,608.85 1137.95,608.83 1139.10,609.45 1140.25,609.39 1140.25,609.55 1141.40,609.37 1142.55,609.92 1143.70,609.53 1143.70,609.14 1144.85,609.45 1146.00,609.48 1147.15,609.18 1147.15,608.94 1148.30,608.85 1149.45,608.81 1150.60,608.93 1150.60,608.68 1151.75,608.66 1152.90,608.39 1154.05,608.55 1154.05,608.44 1155.20,609.11 1156.35,609.41 1157.50,609.48 1157.50,609.77 1158.65,609.81 1159.80,609.61 1160.95,609.72 1160.95,609.50 1162.10,609.04 1163.25,608.28 1164.40,608.14 1164.40,607.95 1165.55,608.13 1166.70,608.28 1167.85,608.45 1167.85,609.07 1169.00,608.50 1170.15,608.70 1171.30,608.88 1171.30,608.96 1172.45,608.94 1173.60,608.61 1174.75,608.26 1174.75,608.50 1175.90,608.64 1177.05,608.91 1178.20,609.81 1178.20,608.99 1179.35,608.68 1180.50,608.80 1181.65,608.55 1181.65,608.17 1182.80,608.51 1183.95,608.72 1185.10,608.95 1185.10,609.19 1186.25,609.68 1187.40,608.85 1188.55,609.22 1188.55,609.34 1189.70,609.32 1190.85,609.75 1192.00,609.49 1192.00,609.66 1193.15,609.58 1194.30,610.30 1195.45,609.80 1195.45,610.46 1196.60,610.30 1197.75,611.04 1198.90,611.03 1198.90,610.05 1200.05,610.01 1201.20,609.57 1202.35,608.75 1202.35,608.86 1203.50,609.58 1204.65,609.63 1205.80,610.19 1205.80,610.28 1206.95,610.19 1208.10,610.14 1209.25,609.46 1209.25,609.67 1210.40,609.34 1211.55,609.33 1212.70,609.90 1212.70,609.68 1213.85,609.57 1215.00,609.73 1216.15,609.60 1216.15,609.34 1217.30,609.44 1218.45,608.85 1218.45,609.38 1219.60,609.13 1220.75,609.19 1221.90,608.88 1221.90,609.30 1223.05,609.09 1224.20,609.12 1225.35,609.20 1225.35,609.55 1226.50,609.40 1227.65,609.16 1228.80,609.22 1228.80,609.47 1229.95,609.62 1231.10,609.90 1232.25,610.98 1232.25,610.55 1233.40,610.42 1234.55,610.06 1235.70,610.27 1235.70,609.40 1236.85,609.48 1238.00,609.62" fill="none" stroke="#2ca02c" stroke-width="1" opacity="0.18"/>
<polyline points="88.00,109.68 88.00,102.32 88.00,109.05 88.00,123.17 88.00,137.87 88.00,152.17 88.00,165.55 88.00,177.91 88.00,189.30 88.00,199.76 88.00,209.39 88.00,218.27 89.15,226.46 89.15,234.02 90.30,241.04 91.45,247.53 92.60,253.56 92.60,259.20 93.75,264.49 94.90,269.46 96.05,274.13 96.05,278.53 97.20,282.69 98.35,286.64 99.50,290.40 99.50,301.37 100.65,313.06 101.80,323.74 102.95,332.80 102.95,340.72 104.10,347.66 105.25,353.81 106.40,359.32 106.40,364.28 107.55,368.81 108.70,372.96 109.85,376.77 109.85,380.34 111.00,383.68 112.15,386.84 112.15,389.86 113.30,392.77 114.45,395.54 115.60,398.22 115.60,400.81 116.75,403.32 117.90,405.75 119.05,408.13 119.05,410.45 120.20,412.70 121.35,414.89 122.50,417.04 122.50,419.17 123.65,421.25 124.80,423.29 125.95,425.30 125.95,427.28 127.10,429.20 128.25,431.08 129.40,432.92 129.40,434.74 130.55,436.55 131.70,438.33 132.85,440.07 132.85,441.78 134.00,443.45 135.15,445.11 136.30,446.74 136.30,448.35 137.45,449.94 138.60,451.52 139.75,453.12 139.75,454.69 140.90,456.26 142.05,457.81 142.05,459.35 143.20,460.87 144.35,462.39 145.50,463.92 145.50,465.44 146.65,466.95 147.80,468.44 148.95,469.95 148.95,471.48 150.10,472.98 151.25,474.46 152.40,475.91 152.40,477.37 153.55,478.82 154.70,480.29 155.85,481.75 155.85,483.17 157.00,484.60 158.15,486.02 159.30,487.42 159.30,488.83 160.45,490.21 161.60,491.60 162.75,492.99 162.75,494.38 163.90,495.74 165.05,497.05 166.20,498.34 166.20,499.61 167.35,500.86 168.50,502.09 169.65,503.30 169.65,504.49 170.80,505.67 171.95,506.85 171.95,508.03 173.10,509.17 174.25,510.27 175.40,511.33 175.40,512.37 176.55,513.38 177.70,514.38 178.85,515.36 178.85,516.31 180.00,517.24 181.15,518.12 182.30,518.98 182.30,519.81 183.45,520.60 184.60,521.38 185.75,522.17 185.75,522.96 186.90,523.71 188.05,524.42 189.20,525.13 189.20,525.83 190.35,526.53 191.50,527.20 192.65,527.82 192.65,528.42 193.80,528.99 194.95,529.57 196.10,530.16 196.10,530.76 197.25,531.33 198.40,531.92 199.55,532.50 199.55,533.04 200.70,533.58 201.85,534.10 203.00,534.62 203.00,535.10 204.15,535.59 205.30,536.05 206.45,536.49 206.45,536.91 207.60,537.31 208.75,537.72 208.75,538.14 209.90,538.53 211.05,538.89 212.20,539.24 212.20,539.56 213.35,539.88 214.50,540.18 215.65,540.50 215.65,540.82 216.80,541.14 217.95,541.44 219.10,541.76 219.10,542.07 220.25,542.39 221.40,542.71 222.55,542.99 222.55,543.29 223.70,543.60 224.85,543.90 226.00,544.18 226.00,544.47 227.15,544.77 228.30,545.04 229.45,545.30 229.45,545.60 230.60,545.88 231.75,546.16 232.90,546.46 232.90,546.75 234.05,547.07 235.20,547.36 236.35,547.67 236.35,547.98 237.50,548.26 238.65,548.51 238.65,548.78 239.80,549.03 240.95,549.29 242.10,549.57 242.10,549.84 243.25,550.16 244.40,550.44 245.55,550.70 245.55,550.95 246.70,551.19 247.85,551.42 249.00,551.65 249.00,551.91 250.15,552.18 251.30,552.41 252.45,552.65 252.45,552.90 253.60,553.13 254.75,553.36 255.90,553.57 255.90,553.80 257.05,554.02 258.20,554.24 259.35,554.46 259.35,554.68 260.50,554.87 261.65,555.06 262.80,555.21 262.80,555.32 263.95,555.42 265.10,555.51 266.25,555.59 266.25,555.67 267.40,555.77 268.55,555.86 268.55,555.98 269.70,556.07 270.85,556.18 272.00,556.28 272.00,556.34 273.15,556.42 274.30,556.49 275.45,556.55 275.45,556.63 276.60,556.71 277.75,556.81 278.90,556.91 278.90,557.00 280.05,557.09 281.20,557.17 282.35,557.24 282.35,557.31 283.50,557.39 284.65,557.48 285.80,557.58 285.80,557.67 286.95,557.79 288.10,557.93 289.25,558.05 289.25,558.20 290.40,558.32 291.55,558.44 292.70,558.53 292.70,558.63 293.85,558.75 295.00,558.86 296.15,558.98 296.15,559.08 297.30,559.19 298.45,559.30 298.45,559.43 299.60,559.52 300.75,559.60 301.90,559.70 301.90,559.80 303.05,559.95 304.20,560.10 305.35,560.23 305.35,560.32 306.50,560.43 307.65,560.52 308.80,560.60 308.80,560.69 309.95,560.77 311.10,560.83 312.25,560.90 312.25,560.96 313.40,561.02 314.55,561.10 315.70,561.15 315.70,561.22 316.85,561.25 318.00,561.31 319.15,561.37 319.15,561.42 320.30,561.45 321.45,561.53 322.60,561.61 322.60,561.63 323.75,561.66 324.90,561.70 324.90,561.76 326.05,561.84 327.20,561.93 328.35,562.00 328.35,562.07 329.50,562.17 330.65,562.27 331.80,562.37 331.80,562.46 332.95,562.58 334.10,562.70 335.25,562.83 335.25,562.95 336.40,563.06 337.55,563.15 338.70,563.26 338.70,563.37 339.85,563.46 341.00,563.55 342.15,563.63 342.15,563.67 343.30,563.70 344.45,563.76 345.60,563.81 345.60,563.80 346.75,563.79 347.90,563.80 349.05,563.83 349.05,563.89 350.20,563.98 351.35,564.03 352.50,564.07 352.50,564.13 353.65,564.21 354.80,564.27 355.95,564.32 355.95,564.38 357.10,564.44 358.25,564.53 359.40,564.62 359.40,564.71 360.55,564.78 361.70,564.88 362.85,564.95 362.85,565.03 364.00,565.11 365.15,565.23 365.15,565.36 366.30,565.49 367.45,565.64 368.60,565.77 368.60,565.90 369.75,566.03 370.90,566.12 372.05,566.18 372.05,566.23 373.20,566.28 374.35,566.35 375.50,566.38 375.50,566.41 376.65,566.47 377.80,566.51 378.95,566.56 378.95,566.58 380.10,566.60 381.25,566.66 382.40,566.74 382.40,566.79 383.55,566.85 384.70,566.93 385.85,567.02 385.85,567.11 387.00,567.20 388.15,567.28 389.30,567.37 389.30,567.43 390.45,567.49 391.60,567.54 392.75,567.61 392.75,567.70 393.90,567.83 395.05,567.97 396.20,568.09 396.20,568.22 397.35,568.35 398.50,568.46 399.65,568.54 399.65,568.62 400.80,568.72 401.95,568.81 401.95,568.89 403.10,568.95 404.25,569.00 405.40,569.06 405.40,569.09 406.55,569.11 407.70,569.11 408.85,569.10 408.85,569.08 410.00,569.09 411.15,569.12 412.30,569.15 412.30,569.19 413.45,569.22 414.60,569.26 415.75,569.27 415.75,569.25 416.90,569.25 418.05,569.26 419.20,569.30 419.20,569.34 420.35,569.38 421.50,569.44 422.65,569.49 422.65,569.54 423.80,569.58 424.95,569.63 426.10,569.73 426.10,569.84 427.25,569.95 428.40,570.07 429.55,570.22 429.55,570.37 430.70,570.53 431.85,570.68 433.00,570.82 433.00,570.94 434.15,571.07 435.30,571.24 436.45,571.42 436.45,571.63 437.60,571.84 438.75,572.05 438.75,572.25 439.90,572.41 441.05,572.58 442.20,572.76 442.20,572.91 443.35,573.04 444.50,573.17 445.65,573.32 445.65,573.47 446.80,573.58 447.95,573.68 449.10,573.78 449.10,573.84 450.25,573.90 451.40,573.94 452.55,573.99 452.55,574.05 453.70,574.12 454.85,574.19 456.00,574.24 456.00,574.25 457.15,574.24 458.30,574.22 459.45,574.20 459.45,574.17 460.60,574.13 461.75,574.10 462.90,574.04 462.90,574.01 464.05,573.97 465.20,573.97 466.35,573.95 466.35,573.95 467.50,573.94 468.65,573.90 469.80,573.88 469.80,573.87 470.95,573.90 472.10,573.91 473.25,573.92 473.25,573.91 474.40,573.88 475.55,573.82 475.55,573.79 476.70,573.75 477.85,573.73 479.00,573.75 479.00,573.76 480.15,573.76 481.30,573.75 482.45,573.73 482.45,573.73 483.60,573.73 484.75,573.74 485.90,573.77 485.90,573.80 487.05,573.86 488.20,573.89 489.35,573.94 489.35,574.00 490.50,574.05 491.65,574.09 492.80,574.11 492.80,574.14 493.95,574.21 495.10,574.28 496.25,574.38 496.25,574.53 497.40,574.69 498.55,574.87 499.70,575.03 499.70,575.16 500.85,575.29 502.00,575.42 503.15,575.56 503.15,575.72 504.30,575.87 505.45,576.00 506.60,576.13 506.60,576.23 507.75,576.32 508.90,576.39 510.05,576.49 510.05,576.58 511.20,576.69 512.35,576.80 513.50,576.91 513.50,577.05 514.65,577.17 515.80,577.27 516.95,577.37 516.95,577.48 518.10,577.53 519.25,577.57 519.25,577.60 520.40,577.61 521.55,577.64 522.70,577.66 522.70,577.71 523.85,577.76 525.00,577.80 526.15,577.87 526.15,577.94 527.30,578.02 528.45,578.10 529.60,578.18 529.60,578.28 530.75,578.35 531.90,578.41 533.05,578.47 533.05,578.52 534.20,578.59 535.35,578.62 536.50,578.71 536.50,578.79 537.65,578.84 538.80,578.87 539.95,578.92 539.95,578.98 541.10,579.06 542.25,579.13 543.40,579.19 543.40,579.27 544.55,579.32 545.70,579.37 546.85,579.45 546.85,579.52 548.00,579.64 549.15,579.76 550.30,579.84 550.30,579.95 551.45,580.03 552.60,580.14 553.75,580.26 553.75,580.36 554.90,580.43 556.05,580.52 557.20,580.63 557.20,580.74 558.35,580.86 559.50,581.00 560.65,581.14 560.65,581.28 561.80,581.39 562.95,581.49 564.10,581.62 564.10,581.73 565.25,581.82 566.40,581.92 567.55,582.02 567.55,582.08 568.70,582.15 569.85,582.18 569.85,582.20 571.00,582.24 572.15,582.29 573.30,582.34 573.30,582.38 574.45,582.38 575.60,582.39 576.75,582.43 576.75,582.44 577.90,582.45 579.05,582.45 580.20,582.42 580.20,582.40 581.35,582.37 582.50,582.35 583.65,582.32 583.65,582.28 584.80,582.24 585.95,582.19 587.10,582.14 587.10,582.08 588.25,582.05 589.40,582.03 590.55,582.02 590.55,582.01 591.70,582.04 592.85,582.09 594.00,582.12 594.00,582.17 595.15,582.22 596.30,582.29 597.45,582.36 597.45,582.42 598.60,582.49 599.75,582.54 600.90,582.59 600.90,582.64 602.05,582.71 603.20,582.78 604.35,582.83 604.35,582.88 605.50,582.93 606.65,582.96 607.80,583.01 607.80,583.06 608.95,583.13 610.10,583.18 611.25,583.22 611.25,583.28 612.40,583.35 613.55,583.38 614.70,583.41 614.70,583.44 615.85,583.46 617.00,583.48 618.15,583.51 618.15,583.55 619.30,583.60 620.45,583.66 621.60,583.74 621.60,583.80 622.75,583.87 623.90,583.91 625.05,583.96 625.05,584.02 626.20,584.09 627.35,584.20 627.35,584.33 628.50,584.47 629.65,584.60 630.80,584.71 630.80,584.84 631.95,584.95 633.10,585.06 634.25,585.14 634.25,585.24 635.40,585.32 636.55,585.38 637.70,585.43 637.70,585.46 638.85,585.52 640.00,585.59 641.15,585.65 641.15,585.70 642.30,585.74 643.45,585.78 644.60,585.81 644.60,585.86 645.75,585.92 646.90,585.95 648.05,585.98 648.05,586.01 649.20,586.02 650.35,586.03 651.50,586.05 651.50,586.09 652.65,586.11 653.80,586.13 654.95,586.16 654.95,586.18 656.10,586.19 657.25,586.21 658.40,586.25 658.40,586.26 659.55,586.27 660.70,586.27 661.85,586.26 661.85,586.24 663.00,586.22 664.15,586.23 665.30,586.25 665.30,586.28 666.45,586.33 667.60,586.34 668.75,586.39 668.75,586.41 669.90,586.42 671.05,586.42 672.20,586.42 672.20,586.41 673.35,586.41 674.50,586.43 675.65,586.45 675.65,586.47 676.80,586.50 677.95,586.53 679.10,586.54 679.10,586.57 680.25,586.66 681.40,586.77 682.55,586.87 682.55,586.92 683.70,586.98 684.85,587.04 684.85,587.09 686.00,587.14 687.15,587.22 688.30,587.28 688.30,587.36 689.45,587.44 690.60,587.52 691.75,587.59 691.75,587.66 692.90,587.73 694.05,587.81 695.20,587.89 695.20,587.95 696.35,588.05 697.50,588.16 698.65,588.25 698.65,588.34 699.80,588.46 700.95,588.57 702.10,588.64 702.10,588.72 703.25,588.78 704.40,588.88 705.55,588.99 705.55,589.13 706.70,589.23 707.85,589.33 709.00,589.41 709.00,589.51 710.15,589.62 711.30,589.73 712.45,589.86 712.45,589.99 713.60,590.09 714.75,590.19 715.90,590.28 715.90,590.37 717.05,590.46 718.20,590.52 719.35,590.56 719.35,590.64 720.50,590.71 721.65,590.78 722.80,590.85 722.80,590.92 723.95,590.99 725.10,591.10 726.25,591.19 726.25,591.26 727.40,591.29 728.55,591.32 729.70,591.33 729.70,591.35 730.85,591.33 732.00,591.29 733.15,591.23 733.15,591.17 734.30,591.12 735.45,591.11 736.60,591.10 736.60,591.08 737.75,591.06 738.90,591.03 740.05,591.03 740.05,591.04 741.20,591.04 742.35,591.03 742.35,591.01 743.50,591.01 744.65,591.01 745.80,591.03 745.80,591.01 746.95,591.00 748.10,591.01 749.25,591.02 749.25,591.05 750.40,591.10 751.55,591.13 752.70,591.17 752.70,591.22 753.85,591.27 755.00,591.32 756.15,591.38 756.15,591.44 757.30,591.47 758.45,591.52 759.60,591.61 759.60,591.73 760.75,591.81 761.90,591.88 763.05,591.95 763.05,592.04 764.20,592.12 765.35,592.19 766.50,592.25 766.50,592.28 767.65,592.33 768.80,592.37 769.95,592.40 769.95,592.43 771.10,592.49 772.25,592.52 773.40,592.56 773.40,592.61 774.55,592.65 775.70,592.70 776.85,592.76 776.85,592.80 778.00,592.86 779.15,592.97 780.30,593.05 780.30,593.10 781.45,593.11 782.60,593.17 783.75,593.25 783.75,593.32 784.90,593.37 786.05,593.42 787.20,593.47 787.20,593.53 788.35,593.58 789.50,593.65 790.65,593.71 790.65,593.80 791.80,593.88 792.95,593.94 794.10,593.99 794.10,594.07 795.25,594.14 796.40,594.22 797.55,594.29 797.55,594.34 798.70,594.41 799.85,594.46 801.00,594.51 801.00,594.57 802.15,594.63 803.30,594.68 804.45,594.67 804.45,594.63 805.60,594.60 806.75,594.59 807.90,594.60 807.90,594.61 809.05,594.61 810.20,594.63 811.35,594.67 811.35,594.73 812.50,594.77 813.65,594.83 813.65,594.90 814.80,594.97 815.95,595.02 817.10,595.08 817.10,595.12 818.25,595.17 819.40,595.25 820.55,595.32 820.55,595.37 821.70,595.39 822.85,595.40 824.00,595.41 824.00,595.42 825.15,595.44 826.30,595.49 827.45,595.55 827.45,595.60 828.60,595.60 829.75,595.63 830.90,595.65 830.90,595.66 832.05,595.65 833.20,595.62 834.35,595.60 834.35,595.55 835.50,595.50 836.65,595.44 837.80,595.39 837.80,595.33 838.95,595.30 840.10,595.31 841.25,595.30 841.25,595.31 842.40,595.36 843.55,595.40 844.70,595.44 844.70,595.46 845.85,595.52 847.00,595.59 848.15,595.62 848.15,595.65 849.30,595.67 850.45,595.72 851.60,595.72 851.60,595.75 852.75,595.75 853.90,595.76 855.05,595.77 855.05,595.75 856.20,595.78 857.35,595.81 858.50,595.85 858.50,595.90 859.65,595.95 860.80,595.96 861.95,595.93 861.95,595.90 863.10,595.88 864.25,595.83 865.40,595.81 865.40,595.79 866.55,595.78 867.70,595.76 868.85,595.72 868.85,595.70 870.00,595.67 871.15,595.65 872.30,595.60 872.30,595.59 873.45,595.60 874.60,595.63 875.75,595.68 875.75,595.72 876.90,595.80 878.05,595.86 879.20,595.93 879.20,595.99 880.35,596.05 881.50,596.08 882.65,596.10 882.65,596.16 883.80,596.22 884.95,596.25 886.10,596.28 886.10,596.32 887.25,596.38 888.40,596.44 888.40,596.50 889.55,596.59 890.70,596.66 891.85,596.72 891.85,596.80 893.00,596.91 894.15,596.99 895.30,597.04 895.30,597.07 896.45,597.10 897.60,597.12 898.75,597.12 898.75,597.13 899.90,597.12 901.05,597.12 902.20,597.15 902.20,597.22 903.35,597.32 904.50,597.42 905.65,597.52 905.65,597.64 906.80,597.77 907.95,597.86 909.10,597.95 909.10,598.02 910.25,598.10 911.40,598.14 912.55,598.19 912.55,598.24 913.70,598.29 914.85,598.31 916.00,598.34 916.00,598.36 917.15,598.40 918.30,598.41 919.45,598.43 919.45,598.49 920.60,598.57 921.75,598.65 922.90,598.75 922.90,598.84 924.05,598.91 925.20,598.95 926.35,598.96 926.35,598.97 927.50,599.00 928.65,599.06 929.80,599.11 929.80,599.14 930.95,599.18 932.10,599.21 933.25,599.25 933.25,599.30 934.40,599.35 935.55,599.42 936.70,599.51 936.70,599.61 937.85,599.70 939.00,599.78 940.15,599.89 940.15,599.97 941.30,600.02 942.45,600.05 943.60,600.08 943.60,600.08 944.75,600.05 945.90,600.01 947.05,600.03 947.05,600.01 948.20,599.99 949.35,599.96 950.50,599.96 950.50,599.95 951.65,599.94 952.80,599.96 952.80,599.98 953.95,599.99 955.10,600.01 956.25,600.06 956.25,600.06 957.40,600.08 958.55,600.11 959.70,600.13 959.70,600.19 960.85,600.25 962.00,600.29 963.15,600.35 963.15,600.40 964.30,600.45 965.45,600.54 966.60,600.63 966.60,600.71 967.75,600.77 968.90,600.85 970.05,600.91 970.05,600.95 971.20,600.94 972.35,600.96 973.50,601.00 973.50,601.02 974.65,601.04 975.80,601.10 976.95,601.14 976.95,601.15 978.10,601.18 979.25,601.18 980.40,601.19 980.40,601.22 981.55,601.23 982.70,601.22 983.85,601.23 983.85,601.25 985.00,601.28 986.15,601.29 987.30,601.26 987.30,601.27 988.45,601.30 989.60,601.33 990.75,601.39 990.75,601.44 991.90,601.48 993.05,601.55 994.20,601.60 994.20,601.68 995.35,601.73 996.50,601.80 997.65,601.86 997.65,601.96 998.80,602.08 999.95,602.16 1001.10,602.25 1001.10,602.30 1002.25,602.36 1003.40,602.41 1004.55,602.47 1004.55,602.54 1005.70,602.58 1006.85,602.61 1008.00,602.66 1008.00,602.75 1009.15,602.79 1010.30,602.82 1011.45,602.87 1011.45,602.87 1012.60,602.89 1013.75,602.89 1014.90,602.89 1014.90,602.89 1016.05,602.89 1017.20,602.90 1018.35,602.90 1018.35,602.90 1019.50,602.86 1020.65,602.82 1021.80,602.80 1021.80,602.80 1022.95,602.82 1024.10,602.85 1025.25,602.86 1025.25,602.89 1026.40,602.90 1027.55,602.89 1028.70,602.89 1028.70,602.90 1029.85,602.90 1031.00,602.92 1032.15,602.92 1032.15,602.92 1033.30,602.95 1034.45,603.00 1034.45,603.04 1035.60,603.07 1036.75,603.10 1037.90,603.12 1037.90,603.14 1039.05,603.15 1040.20,603.18 1041.35,603.21 1041.35,603.21 1042.50,603.22 1043.65,603.22 1044.80,603.21 1044.80,603.17 1045.95,603.13 1047.10,603.09 1048.25,603.08 1048.25,603.10 1049.40,603.12 1050.55,603.12 1051.70,603.11 1051.70,603.09 1052.85,603.09 1054.00,603.12 1055.15,603.13 1055.15,603.15 1056.30,603.17 1057.45,603.18 1058.60,603.22 1058.60,603.24 1059.75,603.25 1060.90,603.26 1062.05,603.26 1062.05,603.31 1063.20,603.35 1064.35,603.42 1065.50,603.48 1065.50,603.54 1066.65,603.62 1067.80,603.68 1068.95,603.72 1068.95,603.73 1070.10,603.73 1071.25,603.76 1072.40,603.78 1072.40,603.84 1073.55,603.90 1074.70,603.95 1075.85,603.98 1075.85,603.99 1077.00,603.99 1078.15,603.99 1079.30,604.02 1079.30,604.05 1080.45,604.13 1081.60,604.21 1082.75,604.29 1082.75,604.38 1083.90,604.46 1085.05,604.55 1086.20,604.61 1086.20,604.70 1087.35,604.76 1088.50,604.82 1089.65,604.90 1089.65,604.98 1090.80,605.09 1091.95,605.19 1093.10,605.24 1093.10,605.28 1094.25,605.30 1095.40,605.31 1096.55,605.32 1096.55,605.34 1097.70,605.41 1098.85,605.46 1100.00,605.49 1100.00,605.50 1101.15,605.49 1102.30,605.48 1103.45,605.46 1103.45,605.44 1104.60,605.42 1105.75,605.42 1106.90,605.44 1106.90,605.48 1108.05,605.47 1109.20,605.48 1110.35,605.51 1110.35,605.54 1111.50,605.58 1112.65,605.61 1113.80,605.63 1113.80,605.68 1114.95,605.75 1116.10,605.80 1117.25,605.88 1117.25,605.94 1118.40,605.98 1119.55,606.02 1120.70,606.06 1120.70,606.13 1121.85,606.21 1123.00,606.28 1123.00,606.33 1124.15,606.40 1125.30,606.47 1126.45,606.51 1126.45,606.53 1127.60,606.52 1128.75,606.51 1129.90,606.55 1129.90,606.60 1131.05,606.64 1132.20,606.69 1133.35,606.75 1133.35,606.82 1134.50,606.93 1135.65,607.03 1136.80,607.11 1136.80,607.22 1137.95,607.31 1139.10,607.45 1140.25,607.57 1140.25,607.70 1141.40,607.82 1142.55,607.96 1143.70,608.09 1143.70,608.20 1144.85,608.31 1146.00,608.41 1147.15,608.51 1147.15,608.61 1148.30,608.69 1149.45,608.77 1150.60,608.85 1150.60,608.89 1151.75,608.93 1152.90,608.96 1154.05,608.98 1154.05,609.00 1155.20,609.02 1156.35,609.05 1157.50,609.08 1157.50,609.13 1158.65,609.16 1159.80,609.20 1160.95,609.21 1160.95,609.21 1162.10,609.19 1163.25,609.15 1164.40,609.08 1164.40,609.01 1165.55,608.97 1166.70,608.93 1167.85,608.88 1167.85,608.88 1169.00,608.86 1170.15,608.86 1171.30,608.86 1171.30,608.86 1172.45,608.87 1173.60,608.87 1174.75,608.86 1174.75,608.86 1175.90,608.87 1177.05,608.86 1178.20,608.88 1178.20,608.86 1179.35,608.81 1180.50,608.77 1181.65,608.73 1181.65,608.67 1182.80,608.63 1183.95,608.62 1185.10,608.64 1185.10,608.68 1186.25,608.75 1187.40,608.78 1188.55,608.82 1188.55,608.86 1189.70,608.87 1190.85,608.92 1192.00,608.95 1192.00,608.98 1193.15,609.00 1194.30,609.06 1195.45,609.11 1195.45,609.19 1196.60,609.27 1197.75,609.36 1198.90,609.45 1198.90,609.46 1200.05,609.50 1201.20,609.53 1202.35,609.53 1202.35,609.54 1203.50,609.60 1204.65,609.64 1205.80,609.70 1205.80,609.76 1206.95,609.80 1208.10,609.82 1209.25,609.84 1209.25,609.86 1210.40,609.86 1211.55,609.86 1212.70,609.86 1212.70,609.87 1213.85,609.87 1215.00,609.87 1216.15,609.85 1216.15,609.83 1217.30,609.79 1218.45,609.73 1218.45,609.66 1219.60,609.59 1220.75,609.55 1221.90,609.51 1221.90,609.50 1223.05,609.51 1224.20,609.52 1225.35,609.51 1225.35,609.50 1226.50,609.47 1227.65,609.43 1228.80,609.39 1228.80,609.36 1229.95,609.37 1231.10,609.38 1232.25,609.44 1232.25,609.49 1233.40,609.51 1234.55,609.53 1235.70,609.55 1235.70,609.54 1236.85,609.54 1238.00,609.55" fill="none" stroke="#2ca02c" stroke-width="2.6"/>
<line x1="812" y1="114" x2="850" y2="114" stroke="#2ca02c" stroke-width="3"/>
<text class="legend" x="860" y="119">run2.log (final 2.922, min 2.905, val_bpb 1.0395)</text>
</svg>
